<?xml version="1.0" encoding="utf-8" standalone="no"?>
<!DOCTYPE svg PUBLIC "-//W3C//DTD SVG 1.1//EN"
  "http://www.w3.org/Graphics/SVG/1.1/DTD/svg11.dtd">
<svg xmlns:xlink="http://www.w3.org/1999/xlink" width="745.5505pt" height="568.8pt" viewBox="0 0 745.5505 568.8" xmlns="http://www.w3.org/2000/svg" version="1.1">
 <metadata>
  <rdf:RDF xmlns:dc="http://purl.org/dc/elements/1.1/" xmlns:cc="http://creativecommons.org/ns#" xmlns:rdf="http://www.w3.org/1999/02/22-rdf-syntax-ns#">
   <cc:Work>
    <dc:type rdf:resource="http://purl.org/dc/dcmitype/StillImage"/>
    <dc:date>2026-05-23T07:27:29.320690</dc:date>
    <dc:format>image/svg+xml</dc:format>
    <dc:creator>
     <cc:Agent>
      <dc:title>Matplotlib v3.10.9, https://matplotlib.org/</dc:title>
     </cc:Agent>
    </dc:creator>
   </cc:Work>
  </rdf:RDF>
 </metadata>
 <defs>
  <style type="text/css">*{stroke-linejoin: round; stroke-linecap: butt}</style>
 </defs>
 <g id="figure_1">
  <g id="patch_1">
   <path d="M 0 568.8 
L 745.5505 568.8 
L 745.5505 0 
L 0 0 
z
" style="fill: #ffffff"/>
  </g>
  <g id="patch_2">
   <path d="M 7.2 561.6 
L 561.6 561.6 
L 561.6 7.2 
L 7.2 7.2 
z
" style="fill: #ffffff"/>
  </g>
  <g id="pane3d_1">
   <g id="patch_3">
    <path d="M 50.759925 381.3775 
L 331.948475 305.234745 
L 333.212244 72.117637 
L 42.66913 136.009467 
" style="fill: #f2f2f2; opacity: 0.5; stroke: #f2f2f2; stroke-linejoin: miter"/>
   </g>
  </g>
  <g id="pane3d_2">
   <g id="patch_4">
    <path d="M 331.948475 305.234745 
L 539.539421 416.916187 
L 548.081106 165.915228 
L 333.212244 72.117637 
" style="fill: #e6e6e6; opacity: 0.5; stroke: #e6e6e6; stroke-linejoin: miter"/>
   </g>
  </g>
  <g id="pane3d_3">
   <g id="patch_5">
    <path d="M 50.759925 381.3775 
L 245.283459 507.907181 
L 539.539421 416.916187 
L 331.948475 305.234745 
" style="fill: #ececec; opacity: 0.5; stroke: #ececec; stroke-linejoin: miter"/>
   </g>
  </g>
  <g id="grid3d_1">
   <g id="Line3DCollection_1">
    <path d="M 71.041363 394.569754 
L 353.700262 316.936946 
L 355.669295 81.920906 
" style="fill: none; stroke: #b0b0b0; stroke-width: 0.8"/>
    <path d="M 99.765121 413.253395 
L 384.463253 333.487067 
L 387.452585 95.795397 
" style="fill: none; stroke: #b0b0b0; stroke-width: 0.8"/>
    <path d="M 129.308373 432.470084 
L 416.051251 350.481031 
L 420.116151 110.054158 
" style="fill: none; stroke: #b0b0b0; stroke-width: 0.8"/>
    <path d="M 159.706697 452.242963 
L 448.497894 367.936937 
L 453.697076 124.713378 
" style="fill: none; stroke: #b0b0b0; stroke-width: 0.8"/>
    <path d="M 190.997759 472.596532 
L 481.838677 385.873878 
L 488.234558 139.790167 
" style="fill: none; stroke: #b0b0b0; stroke-width: 0.8"/>
    <path d="M 223.221475 493.556754 
L 516.111074 404.312017 
L 523.770057 155.302626 
" style="fill: none; stroke: #b0b0b0; stroke-width: 0.8"/>
   </g>
  </g>
  <g id="grid3d_2">
   <g id="Line3DCollection_2">
    <path d="M 67.952628 130.449504 
L 75.186057 374.763173 
L 270.974655 499.962847 
" style="fill: none; stroke: #b0b0b0; stroke-width: 0.8"/>
    <path d="M 131.834481 116.401577 
L 136.938408 358.041318 
L 335.814576 479.91279 
" style="fill: none; stroke: #b0b0b0; stroke-width: 0.8"/>
    <path d="M 194.051937 102.719659 
L 197.132504 341.741422 
L 398.86611 460.415746 
" style="fill: none; stroke: #b0b0b0; stroke-width: 0.8"/>
    <path d="M 254.669207 89.389629 
L 255.826589 325.847711 
L 460.202239 441.449145 
" style="fill: none; stroke: #b0b0b0; stroke-width: 0.8"/>
    <path d="M 313.747239 76.398085 
L 313.076044 310.345191 
L 519.89203 422.991631 
" style="fill: none; stroke: #b0b0b0; stroke-width: 0.8"/>
   </g>
  </g>
  <g id="grid3d_3">
   <g id="Line3DCollection_3">
    <path d="M 539.983492 403.866986 
L 332.014354 293.082541 
L 50.338934 368.610173 
" style="fill: none; stroke: #b0b0b0; stroke-width: 0.8"/>
    <path d="M 541.264775 366.215933 
L 332.204327 258.039794 
L 49.124464 331.779168 
" style="fill: none; stroke: #b0b0b0; stroke-width: 0.8"/>
    <path d="M 542.559362 328.173959 
L 332.396107 222.663626 
L 47.89772 294.575937 
" style="fill: none; stroke: #b0b0b0; stroke-width: 0.8"/>
    <path d="M 543.867461 289.734943 
L 332.589721 186.949254 
L 46.658515 256.994809 
" style="fill: none; stroke: #b0b0b0; stroke-width: 0.8"/>
    <path d="M 545.189283 250.892638 
L 332.785195 150.891807 
L 45.406659 219.029995 
" style="fill: none; stroke: #b0b0b0; stroke-width: 0.8"/>
    <path d="M 546.525047 211.640664 
L 332.982556 114.486316 
L 44.141956 180.67559 
" style="fill: none; stroke: #b0b0b0; stroke-width: 0.8"/>
    <path d="M 547.874974 171.972504 
L 333.181831 77.727718 
L 42.864208 141.925567 
" style="fill: none; stroke: #b0b0b0; stroke-width: 0.8"/>
   </g>
  </g>
  <g id="axis3d_1">
   <g id="line2d_1">
    <path d="M 50.759925 381.3775 
L 245.283459 507.907181 
" style="fill: none; stroke: #000000; stroke-width: 0.8; stroke-linecap: square"/>
   </g>
   <g id="xtick_1">
    <g id="line2d_2">
     <path d="M 73.441792 393.910471 
L 66.233347 395.890284 
" style="fill: none; stroke: #000000; stroke-width: 0.8; stroke-linecap: square"/>
    </g>
    <g id="text_1">
     <!-- −20 -->
     <g transform="translate(48.807689 414.999519) scale(0.1 -0.1)">
      <defs>
       <path id="DejaVuSans-2212" d="M 678 2272 
L 4684 2272 
L 4684 1741 
L 678 1741 
L 678 2272 
z
" transform="scale(0.015625)"/>
       <path id="DejaVuSans-32" d="M 1228 531 
L 3431 531 
L 3431 0 
L 469 0 
L 469 531 
Q 828 903 1448 1529 
Q 2069 2156 2228 2338 
Q 2531 2678 2651 2914 
Q 2772 3150 2772 3378 
Q 2772 3750 2511 3984 
Q 2250 4219 1831 4219 
Q 1534 4219 1204 4116 
Q 875 4013 500 3803 
L 500 4441 
Q 881 4594 1212 4672 
Q 1544 4750 1819 4750 
Q 2544 4750 2975 4387 
Q 3406 4025 3406 3419 
Q 3406 3131 3298 2873 
Q 3191 2616 2906 2266 
Q 2828 2175 2409 1742 
Q 1991 1309 1228 531 
z
" transform="scale(0.015625)"/>
       <path id="DejaVuSans-30" d="M 2034 4250 
Q 1547 4250 1301 3770 
Q 1056 3291 1056 2328 
Q 1056 1369 1301 889 
Q 1547 409 2034 409 
Q 2525 409 2770 889 
Q 3016 1369 3016 2328 
Q 3016 3291 2770 3770 
Q 2525 4250 2034 4250 
z
M 2034 4750 
Q 2819 4750 3233 4129 
Q 3647 3509 3647 2328 
Q 3647 1150 3233 529 
Q 2819 -91 2034 -91 
Q 1250 -91 836 529 
Q 422 1150 422 2328 
Q 422 3509 836 4129 
Q 1250 4750 2034 4750 
z
" transform="scale(0.015625)"/>
      </defs>
      <use xlink:href="#DejaVuSans-2212"/>
      <use xlink:href="#DejaVuSans-32" transform="translate(83.789062 0)"/>
      <use xlink:href="#DejaVuSans-30" transform="translate(147.412109 0)"/>
     </g>
    </g>
   </g>
   <g id="xtick_2">
    <g id="line2d_3">
     <path d="M 102.184838 412.575442 
L 94.91837 414.611351 
" style="fill: none; stroke: #000000; stroke-width: 0.8; stroke-linecap: square"/>
    </g>
    <g id="text_2">
     <!-- −10 -->
     <g transform="translate(77.400965 433.885958) scale(0.1 -0.1)">
      <defs>
       <path id="DejaVuSans-31" d="M 794 531 
L 1825 531 
L 1825 4091 
L 703 3866 
L 703 4441 
L 1819 4666 
L 2450 4666 
L 2450 531 
L 3481 531 
L 3481 0 
L 794 0 
L 794 531 
z
" transform="scale(0.015625)"/>
      </defs>
      <use xlink:href="#DejaVuSans-2212"/>
      <use xlink:href="#DejaVuSans-31" transform="translate(83.789062 0)"/>
      <use xlink:href="#DejaVuSans-30" transform="translate(147.412109 0)"/>
     </g>
    </g>
   </g>
   <g id="xtick_3">
    <g id="line2d_4">
     <path d="M 131.74751 431.772656 
L 124.422618 433.867079 
" style="fill: none; stroke: #000000; stroke-width: 0.8; stroke-linecap: square"/>
    </g>
    <g id="text_3">
     <!-- 0 -->
     <g transform="translate(114.182085 453.311877) scale(0.1 -0.1)">
      <use xlink:href="#DejaVuSans-30"/>
     </g>
    </g>
   </g>
   <g id="xtick_4">
    <g id="line2d_5">
     <path d="M 162.165372 451.525208 
L 154.781694 453.680705 
" style="fill: none; stroke: #000000; stroke-width: 0.8; stroke-linecap: square"/>
    </g>
    <g id="text_4">
     <!-- 10 -->
     <g transform="translate(141.263113 473.300726) scale(0.1 -0.1)">
      <use xlink:href="#DejaVuSans-31"/>
      <use xlink:href="#DejaVuSans-30" transform="translate(63.623047 0)"/>
     </g>
    </g>
   </g>
   <g id="xtick_5">
    <g id="line2d_6">
     <path d="M 193.476078 471.857549 
L 186.033296 474.076831 
" style="fill: none; stroke: #000000; stroke-width: 0.8; stroke-linecap: square"/>
    </g>
    <g id="text_5">
     <!-- 20 -->
     <g transform="translate(172.415234 493.877333) scale(0.1 -0.1)">
      <use xlink:href="#DejaVuSans-32"/>
      <use xlink:href="#DejaVuSans-30" transform="translate(63.623047 0)"/>
     </g>
    </g>
   </g>
   <g id="xtick_6">
    <g id="line2d_7">
     <path d="M 225.719525 492.795587 
L 218.217369 495.081526 
" style="fill: none; stroke: #000000; stroke-width: 0.8; stroke-linecap: square"/>
    </g>
    <g id="text_6">
     <!-- 30 -->
     <g transform="translate(204.497031 515.068011) scale(0.1 -0.1)">
      <defs>
       <path id="DejaVuSans-33" d="M 2597 2516 
Q 3050 2419 3304 2112 
Q 3559 1806 3559 1356 
Q 3559 666 3084 287 
Q 2609 -91 1734 -91 
Q 1441 -91 1130 -33 
Q 819 25 488 141 
L 488 750 
Q 750 597 1062 519 
Q 1375 441 1716 441 
Q 2309 441 2620 675 
Q 2931 909 2931 1356 
Q 2931 1769 2642 2001 
Q 2353 2234 1838 2234 
L 1294 2234 
L 1294 2753 
L 1863 2753 
Q 2328 2753 2575 2939 
Q 2822 3125 2822 3475 
Q 2822 3834 2567 4026 
Q 2313 4219 1838 4219 
Q 1578 4219 1281 4162 
Q 984 4106 628 3988 
L 628 4550 
Q 988 4650 1302 4700 
Q 1616 4750 1894 4750 
Q 2613 4750 3031 4423 
Q 3450 4097 3450 3541 
Q 3450 3153 3228 2886 
Q 3006 2619 2597 2516 
z
" transform="scale(0.015625)"/>
      </defs>
      <use xlink:href="#DejaVuSans-33"/>
      <use xlink:href="#DejaVuSans-30" transform="translate(63.623047 0)"/>
     </g>
    </g>
   </g>
   <g id="text_7">
    <!-- PC1 (9.7%) -->
    <g transform="translate(92.538608 457.900911) rotate(-326.957628) scale(0.1 -0.1)">
     <defs>
      <path id="DejaVuSans-50" d="M 1259 4147 
L 1259 2394 
L 2053 2394 
Q 2494 2394 2734 2622 
Q 2975 2850 2975 3272 
Q 2975 3691 2734 3919 
Q 2494 4147 2053 4147 
L 1259 4147 
z
M 628 4666 
L 2053 4666 
Q 2838 4666 3239 4311 
Q 3641 3956 3641 3272 
Q 3641 2581 3239 2228 
Q 2838 1875 2053 1875 
L 1259 1875 
L 1259 0 
L 628 0 
L 628 4666 
z
" transform="scale(0.015625)"/>
      <path id="DejaVuSans-43" d="M 4122 4306 
L 4122 3641 
Q 3803 3938 3442 4084 
Q 3081 4231 2675 4231 
Q 1875 4231 1450 3742 
Q 1025 3253 1025 2328 
Q 1025 1406 1450 917 
Q 1875 428 2675 428 
Q 3081 428 3442 575 
Q 3803 722 4122 1019 
L 4122 359 
Q 3791 134 3420 21 
Q 3050 -91 2638 -91 
Q 1578 -91 968 557 
Q 359 1206 359 2328 
Q 359 3453 968 4101 
Q 1578 4750 2638 4750 
Q 3056 4750 3426 4639 
Q 3797 4528 4122 4306 
z
" transform="scale(0.015625)"/>
      <path id="DejaVuSans-20" transform="scale(0.015625)"/>
      <path id="DejaVuSans-28" d="M 1984 4856 
Q 1566 4138 1362 3434 
Q 1159 2731 1159 2009 
Q 1159 1288 1364 580 
Q 1569 -128 1984 -844 
L 1484 -844 
Q 1016 -109 783 600 
Q 550 1309 550 2009 
Q 550 2706 781 3412 
Q 1013 4119 1484 4856 
L 1984 4856 
z
" transform="scale(0.015625)"/>
      <path id="DejaVuSans-39" d="M 703 97 
L 703 672 
Q 941 559 1184 500 
Q 1428 441 1663 441 
Q 2288 441 2617 861 
Q 2947 1281 2994 2138 
Q 2813 1869 2534 1725 
Q 2256 1581 1919 1581 
Q 1219 1581 811 2004 
Q 403 2428 403 3163 
Q 403 3881 828 4315 
Q 1253 4750 1959 4750 
Q 2769 4750 3195 4129 
Q 3622 3509 3622 2328 
Q 3622 1225 3098 567 
Q 2575 -91 1691 -91 
Q 1453 -91 1209 -44 
Q 966 3 703 97 
z
M 1959 2075 
Q 2384 2075 2632 2365 
Q 2881 2656 2881 3163 
Q 2881 3666 2632 3958 
Q 2384 4250 1959 4250 
Q 1534 4250 1286 3958 
Q 1038 3666 1038 3163 
Q 1038 2656 1286 2365 
Q 1534 2075 1959 2075 
z
" transform="scale(0.015625)"/>
      <path id="DejaVuSans-2e" d="M 684 794 
L 1344 794 
L 1344 0 
L 684 0 
L 684 794 
z
" transform="scale(0.015625)"/>
      <path id="DejaVuSans-37" d="M 525 4666 
L 3525 4666 
L 3525 4397 
L 1831 0 
L 1172 0 
L 2766 4134 
L 525 4134 
L 525 4666 
z
" transform="scale(0.015625)"/>
      <path id="DejaVuSans-25" d="M 4653 2053 
Q 4381 2053 4226 1822 
Q 4072 1591 4072 1178 
Q 4072 772 4226 539 
Q 4381 306 4653 306 
Q 4919 306 5073 539 
Q 5228 772 5228 1178 
Q 5228 1588 5073 1820 
Q 4919 2053 4653 2053 
z
M 4653 2450 
Q 5147 2450 5437 2106 
Q 5728 1763 5728 1178 
Q 5728 594 5436 251 
Q 5144 -91 4653 -91 
Q 4153 -91 3862 251 
Q 3572 594 3572 1178 
Q 3572 1766 3864 2108 
Q 4156 2450 4653 2450 
z
M 1428 4353 
Q 1159 4353 1004 4120 
Q 850 3888 850 3481 
Q 850 3069 1003 2837 
Q 1156 2606 1428 2606 
Q 1700 2606 1854 2837 
Q 2009 3069 2009 3481 
Q 2009 3884 1853 4118 
Q 1697 4353 1428 4353 
z
M 4250 4750 
L 4750 4750 
L 1831 -91 
L 1331 -91 
L 4250 4750 
z
M 1428 4750 
Q 1922 4750 2215 4408 
Q 2509 4066 2509 3481 
Q 2509 2891 2217 2550 
Q 1925 2209 1428 2209 
Q 931 2209 642 2551 
Q 353 2894 353 3481 
Q 353 4063 643 4406 
Q 934 4750 1428 4750 
z
" transform="scale(0.015625)"/>
      <path id="DejaVuSans-29" d="M 513 4856 
L 1013 4856 
Q 1481 4119 1714 3412 
Q 1947 2706 1947 2009 
Q 1947 1309 1714 600 
Q 1481 -109 1013 -844 
L 513 -844 
Q 928 -128 1133 580 
Q 1338 1288 1338 2009 
Q 1338 2731 1133 3434 
Q 928 4138 513 4856 
z
" transform="scale(0.015625)"/>
     </defs>
     <use xlink:href="#DejaVuSans-50"/>
     <use xlink:href="#DejaVuSans-43" transform="translate(60.302734 0)"/>
     <use xlink:href="#DejaVuSans-31" transform="translate(130.126953 0)"/>
     <use xlink:href="#DejaVuSans-20" transform="translate(193.75 0)"/>
     <use xlink:href="#DejaVuSans-28" transform="translate(225.537109 0)"/>
     <use xlink:href="#DejaVuSans-39" transform="translate(264.550781 0)"/>
     <use xlink:href="#DejaVuSans-2e" transform="translate(328.173828 0)"/>
     <use xlink:href="#DejaVuSans-37" transform="translate(359.960938 0)"/>
     <use xlink:href="#DejaVuSans-25" transform="translate(423.583984 0)"/>
     <use xlink:href="#DejaVuSans-29" transform="translate(518.603516 0)"/>
    </g>
   </g>
  </g>
  <g id="axis3d_2">
   <g id="line2d_8">
    <path d="M 539.539421 416.916187 
L 245.283459 507.907181 
" style="fill: none; stroke: #000000; stroke-width: 0.8; stroke-linecap: square"/>
   </g>
   <g id="xtick_7">
    <g id="line2d_9">
     <path d="M 269.259806 498.866264 
L 274.412241 502.161058 
" style="fill: none; stroke: #000000; stroke-width: 0.8; stroke-linecap: square"/>
    </g>
    <g id="text_8">
     <!-- −20 -->
     <g transform="translate(269.01609 523.202523) scale(0.1 -0.1)">
      <use xlink:href="#DejaVuSans-2212"/>
      <use xlink:href="#DejaVuSans-32" transform="translate(83.789062 0)"/>
      <use xlink:href="#DejaVuSans-30" transform="translate(147.412109 0)"/>
     </g>
    </g>
   </g>
   <g id="xtick_8">
    <g id="line2d_10">
     <path d="M 334.074792 478.846649 
L 339.302034 482.049907 
" style="fill: none; stroke: #000000; stroke-width: 0.8; stroke-linecap: square"/>
    </g>
    <g id="text_9">
     <!-- 0 -->
     <g transform="translate(341.260505 502.88565) scale(0.1 -0.1)">
      <use xlink:href="#DejaVuSans-30"/>
     </g>
    </g>
   </g>
   <g id="xtick_9">
    <g id="line2d_11">
     <path d="M 397.103408 459.378797 
L 402.399396 462.494281 
" style="fill: none; stroke: #000000; stroke-width: 0.8; stroke-linecap: square"/>
    </g>
    <g id="text_10">
     <!-- 20 -->
     <g transform="translate(401.159079 483.130459) scale(0.1 -0.1)">
      <use xlink:href="#DejaVuSans-32"/>
      <use xlink:href="#DejaVuSans-30" transform="translate(63.623047 0)"/>
     </g>
    </g>
   </g>
   <g id="xtick_10">
    <g id="line2d_12">
     <path d="M 458.418502 440.440205 
L 463.777583 443.471474 
" style="fill: none; stroke: #000000; stroke-width: 0.8; stroke-linecap: square"/>
    </g>
    <g id="text_11">
     <!-- 40 -->
     <g transform="translate(462.518769 463.913976) scale(0.1 -0.1)">
      <defs>
       <path id="DejaVuSans-34" d="M 2419 4116 
L 825 1625 
L 2419 1625 
L 2419 4116 
z
M 2253 4666 
L 3047 4666 
L 3047 1625 
L 3713 1625 
L 3713 1100 
L 3047 1100 
L 3047 0 
L 2419 0 
L 2419 1100 
L 313 1100 
L 313 1709 
L 2253 4666 
z
" transform="scale(0.015625)"/>
      </defs>
      <use xlink:href="#DejaVuSans-34"/>
      <use xlink:href="#DejaVuSans-30" transform="translate(63.623047 0)"/>
     </g>
    </g>
   </g>
   <g id="xtick_11">
    <g id="line2d_13">
     <path d="M 518.089013 422.009582 
L 523.505913 424.960004 
" style="fill: none; stroke: #000000; stroke-width: 0.8; stroke-linecap: square"/>
    </g>
    <g id="text_12">
     <!-- 60 -->
     <g transform="translate(522.227737 445.214462) scale(0.1 -0.1)">
      <defs>
       <path id="DejaVuSans-36" d="M 2113 2584 
Q 1688 2584 1439 2293 
Q 1191 2003 1191 1497 
Q 1191 994 1439 701 
Q 1688 409 2113 409 
Q 2538 409 2786 701 
Q 3034 994 3034 1497 
Q 3034 2003 2786 2293 
Q 2538 2584 2113 2584 
z
M 3366 4563 
L 3366 3988 
Q 3128 4100 2886 4159 
Q 2644 4219 2406 4219 
Q 1781 4219 1451 3797 
Q 1122 3375 1075 2522 
Q 1259 2794 1537 2939 
Q 1816 3084 2150 3084 
Q 2853 3084 3261 2657 
Q 3669 2231 3669 1497 
Q 3669 778 3244 343 
Q 2819 -91 2113 -91 
Q 1303 -91 875 529 
Q 447 1150 447 2328 
Q 447 3434 972 4092 
Q 1497 4750 2381 4750 
Q 2619 4750 2861 4703 
Q 3103 4656 3366 4563 
z
" transform="scale(0.015625)"/>
      </defs>
      <use xlink:href="#DejaVuSans-36"/>
      <use xlink:href="#DejaVuSans-30" transform="translate(63.623047 0)"/>
     </g>
    </g>
   </g>
   <g id="text_13">
    <!-- PC2 (8.9%) -->
    <g transform="translate(390.251079 504.768815) rotate(-17.182862) scale(0.1 -0.1)">
     <defs>
      <path id="DejaVuSans-38" d="M 2034 2216 
Q 1584 2216 1326 1975 
Q 1069 1734 1069 1313 
Q 1069 891 1326 650 
Q 1584 409 2034 409 
Q 2484 409 2743 651 
Q 3003 894 3003 1313 
Q 3003 1734 2745 1975 
Q 2488 2216 2034 2216 
z
M 1403 2484 
Q 997 2584 770 2862 
Q 544 3141 544 3541 
Q 544 4100 942 4425 
Q 1341 4750 2034 4750 
Q 2731 4750 3128 4425 
Q 3525 4100 3525 3541 
Q 3525 3141 3298 2862 
Q 3072 2584 2669 2484 
Q 3125 2378 3379 2068 
Q 3634 1759 3634 1313 
Q 3634 634 3220 271 
Q 2806 -91 2034 -91 
Q 1263 -91 848 271 
Q 434 634 434 1313 
Q 434 1759 690 2068 
Q 947 2378 1403 2484 
z
M 1172 3481 
Q 1172 3119 1398 2916 
Q 1625 2713 2034 2713 
Q 2441 2713 2670 2916 
Q 2900 3119 2900 3481 
Q 2900 3844 2670 4047 
Q 2441 4250 2034 4250 
Q 1625 4250 1398 4047 
Q 1172 3844 1172 3481 
z
" transform="scale(0.015625)"/>
     </defs>
     <use xlink:href="#DejaVuSans-50"/>
     <use xlink:href="#DejaVuSans-43" transform="translate(60.302734 0)"/>
     <use xlink:href="#DejaVuSans-32" transform="translate(130.126953 0)"/>
     <use xlink:href="#DejaVuSans-20" transform="translate(193.75 0)"/>
     <use xlink:href="#DejaVuSans-28" transform="translate(225.537109 0)"/>
     <use xlink:href="#DejaVuSans-38" transform="translate(264.550781 0)"/>
     <use xlink:href="#DejaVuSans-2e" transform="translate(328.173828 0)"/>
     <use xlink:href="#DejaVuSans-39" transform="translate(359.960938 0)"/>
     <use xlink:href="#DejaVuSans-25" transform="translate(423.583984 0)"/>
     <use xlink:href="#DejaVuSans-29" transform="translate(518.603516 0)"/>
    </g>
   </g>
  </g>
  <g id="axis3d_3">
   <g id="line2d_14">
    <path d="M 539.539421 416.916187 
L 548.081106 165.915228 
" style="fill: none; stroke: #000000; stroke-width: 0.8; stroke-linecap: square"/>
   </g>
   <g id="xtick_12">
    <g id="line2d_15">
     <path d="M 538.170823 402.901383 
L 543.616698 405.802382 
" style="fill: none; stroke: #000000; stroke-width: 0.8; stroke-linecap: square"/>
    </g>
    <g id="text_14">
     <!-- −10 -->
     <g transform="translate(549.481635 412.909157) scale(0.1 -0.1)">
      <use xlink:href="#DejaVuSans-2212"/>
      <use xlink:href="#DejaVuSans-31" transform="translate(83.789062 0)"/>
      <use xlink:href="#DejaVuSans-30" transform="translate(147.412109 0)"/>
     </g>
    </g>
   </g>
   <g id="xtick_13">
    <g id="line2d_16">
     <path d="M 539.441822 365.272665 
L 544.918636 368.106585 
" style="fill: none; stroke: #000000; stroke-width: 0.8; stroke-linecap: square"/>
    </g>
    <g id="text_15">
     <!-- 0 -->
     <g transform="translate(558.239067 375.224724) scale(0.1 -0.1)">
      <use xlink:href="#DejaVuSans-30"/>
     </g>
    </g>
   </g>
   <g id="xtick_14">
    <g id="line2d_17">
     <path d="M 540.726008 327.253542 
L 546.234111 330.018829 
" style="fill: none; stroke: #000000; stroke-width: 0.8; stroke-linecap: square"/>
    </g>
    <g id="text_16">
     <!-- 10 -->
     <g transform="translate(556.458565 337.148596) scale(0.1 -0.1)">
      <use xlink:href="#DejaVuSans-31"/>
      <use xlink:href="#DejaVuSans-30" transform="translate(63.623047 0)"/>
     </g>
    </g>
   </g>
   <g id="xtick_15">
    <g id="line2d_18">
     <path d="M 542.023587 288.837907 
L 547.563337 291.532971 
" style="fill: none; stroke: #000000; stroke-width: 0.8; stroke-linecap: square"/>
    </g>
    <g id="text_17">
     <!-- 20 -->
     <g transform="translate(557.873948 298.674635) scale(0.1 -0.1)">
      <use xlink:href="#DejaVuSans-32"/>
      <use xlink:href="#DejaVuSans-30" transform="translate(63.623047 0)"/>
     </g>
    </g>
   </g>
   <g id="xtick_16">
    <g id="line2d_19">
     <path d="M 543.33477 250.019525 
L 548.906529 252.642735 
" style="fill: none; stroke: #000000; stroke-width: 0.8; stroke-linecap: square"/>
    </g>
    <g id="text_18">
     <!-- 30 -->
     <g transform="translate(559.304197 259.796573) scale(0.1 -0.1)">
      <use xlink:href="#DejaVuSans-33"/>
      <use xlink:href="#DejaVuSans-30" transform="translate(63.623047 0)"/>
     </g>
    </g>
   </g>
   <g id="xtick_17">
    <g id="line2d_20">
     <path d="M 544.659772 210.792029 
L 550.263908 213.341714 
" style="fill: none; stroke: #000000; stroke-width: 0.8; stroke-linecap: square"/>
    </g>
    <g id="text_19">
     <!-- 40 -->
     <g transform="translate(560.749548 220.508009) scale(0.1 -0.1)">
      <use xlink:href="#DejaVuSans-34"/>
      <use xlink:href="#DejaVuSans-30" transform="translate(63.623047 0)"/>
     </g>
    </g>
   </g>
   <g id="xtick_18">
    <g id="line2d_21">
     <path d="M 545.998812 171.148916 
L 551.635701 173.623366 
" style="fill: none; stroke: #000000; stroke-width: 0.8; stroke-linecap: square"/>
    </g>
    <g id="text_20">
     <!-- 50 -->
     <g transform="translate(562.210241 180.802409) scale(0.1 -0.1)">
      <defs>
       <path id="DejaVuSans-35" d="M 691 4666 
L 3169 4666 
L 3169 4134 
L 1269 4134 
L 1269 2991 
Q 1406 3038 1543 3061 
Q 1681 3084 1819 3084 
Q 2600 3084 3056 2656 
Q 3513 2228 3513 1497 
Q 3513 744 3044 326 
Q 2575 -91 1722 -91 
Q 1428 -91 1123 -41 
Q 819 9 494 109 
L 494 744 
Q 775 591 1075 516 
Q 1375 441 1709 441 
Q 2250 441 2565 725 
Q 2881 1009 2881 1497 
Q 2881 1984 2565 2268 
Q 2250 2553 1709 2553 
Q 1456 2553 1204 2497 
Q 953 2441 691 2322 
L 691 4666 
z
" transform="scale(0.015625)"/>
      </defs>
      <use xlink:href="#DejaVuSans-35"/>
      <use xlink:href="#DejaVuSans-30" transform="translate(63.623047 0)"/>
     </g>
    </g>
   </g>
   <g id="text_21">
    <!-- PC3 (7.6%) -->
    <g transform="translate(589.861692 324.428643) rotate(-88.050949) scale(0.1 -0.1)">
     <use xlink:href="#DejaVuSans-50"/>
     <use xlink:href="#DejaVuSans-43" transform="translate(60.302734 0)"/>
     <use xlink:href="#DejaVuSans-33" transform="translate(130.126953 0)"/>
     <use xlink:href="#DejaVuSans-20" transform="translate(193.75 0)"/>
     <use xlink:href="#DejaVuSans-28" transform="translate(225.537109 0)"/>
     <use xlink:href="#DejaVuSans-37" transform="translate(264.550781 0)"/>
     <use xlink:href="#DejaVuSans-2e" transform="translate(328.173828 0)"/>
     <use xlink:href="#DejaVuSans-36" transform="translate(359.960938 0)"/>
     <use xlink:href="#DejaVuSans-25" transform="translate(423.583984 0)"/>
     <use xlink:href="#DejaVuSans-29" transform="translate(518.603516 0)"/>
    </g>
   </g>
  </g>
  <g id="axes_1">
   <g id="Path3DCollection_1">
    <defs>
     <path id="C0_0_4e3551d53b" d="M -2.09165 4.1833 
L 0 2.09165 
L 2.09165 4.1833 
L 4.1833 2.09165 
L 2.09165 -0 
L 4.1833 -2.09165 
L 2.09165 -4.1833 
L 0 -2.09165 
L -2.09165 -4.1833 
L -4.1833 -2.09165 
L -2.09165 0 
L -4.1833 2.09165 
z
"/>
    </defs>
    <g clip-path="url(#p116f5eeb9b)">
     <use xlink:href="#C0_0_4e3551d53b" x="159.529283" y="344.140768" style="fill: #a05a2c"/>
    </g>
    <g clip-path="url(#p116f5eeb9b)">
     <use xlink:href="#C0_0_4e3551d53b" x="161.542505" y="345.967415" style="fill: #a05a2c"/>
    </g>
    <g clip-path="url(#p116f5eeb9b)">
     <use xlink:href="#C0_0_4e3551d53b" x="156.777473" y="346.950546" style="fill: #a05a2c"/>
    </g>
    <g clip-path="url(#p116f5eeb9b)">
     <use xlink:href="#C0_0_4e3551d53b" x="160.133713" y="347.590387" style="fill: #a05a2c"/>
    </g>
    <g clip-path="url(#p116f5eeb9b)">
     <use xlink:href="#C0_0_4e3551d53b" x="193.634312" y="333.161858" style="fill: #a05a2c"/>
    </g>
    <g clip-path="url(#p116f5eeb9b)">
     <use xlink:href="#C0_0_4e3551d53b" x="194.806955" y="332.676823" style="fill: #a05a2c"/>
    </g>
    <g clip-path="url(#p116f5eeb9b)">
     <use xlink:href="#C0_0_4e3551d53b" x="198.554328" y="334.781169" style="fill: #a05a2c"/>
    </g>
    <g clip-path="url(#p116f5eeb9b)">
     <use xlink:href="#C0_0_4e3551d53b" x="198.207145" y="334.640012" style="fill: #a05a2c"/>
    </g>
   </g>
   <g id="Path3DCollection_2">
    <path d="M 178.005604 362.543585 
L 186.372205 362.543585 
L 186.372205 354.176985 
L 178.005604 354.176985 
z
" clip-path="url(#p116f5eeb9b)" style="fill: #74c476"/>
    <path d="M 178.694845 363.553458 
L 187.061445 363.553458 
L 187.061445 355.186858 
L 178.694845 355.186858 
z
" clip-path="url(#p116f5eeb9b)" style="fill: #74c476"/>
    <path d="M 183.020891 359.407944 
L 191.387491 359.407944 
L 191.387491 351.041344 
L 183.020891 351.041344 
z
" clip-path="url(#p116f5eeb9b)" style="fill: #74c476"/>
    <path d="M 182.656193 360.681502 
L 191.022794 360.681502 
L 191.022794 352.314902 
L 182.656193 352.314902 
z
" clip-path="url(#p116f5eeb9b)" style="fill: #74c476"/>
   </g>
   <g id="Path3DCollection_3">
    <path d="M 194.437424 368.263228 
L 200.353504 362.347148 
L 194.437424 356.431068 
L 188.521345 362.347148 
z
" clip-path="url(#p116f5eeb9b)" style="fill: #fdae6b"/>
    <path d="M 194.826931 367.828665 
L 200.743011 361.912585 
L 194.826931 355.996505 
L 188.910851 361.912585 
z
" clip-path="url(#p116f5eeb9b)" style="fill: #fdae6b"/>
    <path d="M 204.488406 363.478667 
L 210.404486 357.562587 
L 204.488406 351.646507 
L 198.572326 357.562587 
z
" clip-path="url(#p116f5eeb9b)" style="fill: #fdae6b"/>
    <path d="M 205.973765 363.694271 
L 211.889845 357.778191 
L 205.973765 351.862111 
L 200.057685 357.778191 
z
" clip-path="url(#p116f5eeb9b)" style="fill: #fdae6b"/>
   </g>
   <g id="legend_1">
    <g id="patch_6">
     <path d="M 579.688 235.371875 
L 736.3505 235.371875 
Q 738.3505 235.371875 738.3505 233.371875 
L 738.3505 14.2 
Q 738.3505 12.2 736.3505 12.2 
L 579.688 12.2 
Q 577.688 12.2 577.688 14.2 
L 577.688 233.371875 
Q 577.688 235.371875 579.688 235.371875 
z
" style="fill: #ffffff; opacity: 0.8; stroke: #cccccc; stroke-linejoin: miter"/>
    </g>
    <g id="text_22">
     <!-- Group -->
     <g transform="translate(642.799719 23.798437) scale(0.1 -0.1)">
      <defs>
       <path id="DejaVuSans-47" d="M 3809 666 
L 3809 1919 
L 2778 1919 
L 2778 2438 
L 4434 2438 
L 4434 434 
Q 4069 175 3628 42 
Q 3188 -91 2688 -91 
Q 1594 -91 976 548 
Q 359 1188 359 2328 
Q 359 3472 976 4111 
Q 1594 4750 2688 4750 
Q 3144 4750 3555 4637 
Q 3966 4525 4313 4306 
L 4313 3634 
Q 3963 3931 3569 4081 
Q 3175 4231 2741 4231 
Q 1884 4231 1454 3753 
Q 1025 3275 1025 2328 
Q 1025 1384 1454 906 
Q 1884 428 2741 428 
Q 3075 428 3337 486 
Q 3600 544 3809 666 
z
" transform="scale(0.015625)"/>
       <path id="DejaVuSans-72" d="M 2631 2963 
Q 2534 3019 2420 3045 
Q 2306 3072 2169 3072 
Q 1681 3072 1420 2755 
Q 1159 2438 1159 1844 
L 1159 0 
L 581 0 
L 581 3500 
L 1159 3500 
L 1159 2956 
Q 1341 3275 1631 3429 
Q 1922 3584 2338 3584 
Q 2397 3584 2469 3576 
Q 2541 3569 2628 3553 
L 2631 2963 
z
" transform="scale(0.015625)"/>
       <path id="DejaVuSans-6f" d="M 1959 3097 
Q 1497 3097 1228 2736 
Q 959 2375 959 1747 
Q 959 1119 1226 758 
Q 1494 397 1959 397 
Q 2419 397 2687 759 
Q 2956 1122 2956 1747 
Q 2956 2369 2687 2733 
Q 2419 3097 1959 3097 
z
M 1959 3584 
Q 2709 3584 3137 3096 
Q 3566 2609 3566 1747 
Q 3566 888 3137 398 
Q 2709 -91 1959 -91 
Q 1206 -91 779 398 
Q 353 888 353 1747 
Q 353 2609 779 3096 
Q 1206 3584 1959 3584 
z
" transform="scale(0.015625)"/>
       <path id="DejaVuSans-75" d="M 544 1381 
L 544 3500 
L 1119 3500 
L 1119 1403 
Q 1119 906 1312 657 
Q 1506 409 1894 409 
Q 2359 409 2629 706 
Q 2900 1003 2900 1516 
L 2900 3500 
L 3475 3500 
L 3475 0 
L 2900 0 
L 2900 538 
Q 2691 219 2414 64 
Q 2138 -91 1772 -91 
Q 1169 -91 856 284 
Q 544 659 544 1381 
z
M 1991 3584 
L 1991 3584 
z
" transform="scale(0.015625)"/>
       <path id="DejaVuSans-70" d="M 1159 525 
L 1159 -1331 
L 581 -1331 
L 581 3500 
L 1159 3500 
L 1159 2969 
Q 1341 3281 1617 3432 
Q 1894 3584 2278 3584 
Q 2916 3584 3314 3078 
Q 3713 2572 3713 1747 
Q 3713 922 3314 415 
Q 2916 -91 2278 -91 
Q 1894 -91 1617 61 
Q 1341 213 1159 525 
z
M 3116 1747 
Q 3116 2381 2855 2742 
Q 2594 3103 2138 3103 
Q 1681 3103 1420 2742 
Q 1159 2381 1159 1747 
Q 1159 1113 1420 752 
Q 1681 391 2138 391 
Q 2594 391 2855 752 
Q 3116 1113 3116 1747 
z
" transform="scale(0.015625)"/>
      </defs>
      <use xlink:href="#DejaVuSans-47"/>
      <use xlink:href="#DejaVuSans-72" transform="translate(77.490234 0)"/>
      <use xlink:href="#DejaVuSans-6f" transform="translate(116.353516 0)"/>
      <use xlink:href="#DejaVuSans-75" transform="translate(177.535156 0)"/>
      <use xlink:href="#DejaVuSans-70" transform="translate(240.914062 0)"/>
     </g>
    </g>
    <g id="Path3DCollection_4">
     <path d="M 591.688 40.034863 
C 592.797424 40.034863 593.861559 39.594084 594.64604 38.809602 
C 595.430521 38.025121 595.8713 36.960987 595.8713 35.851562 
C 595.8713 34.742138 595.430521 33.678004 594.64604 32.893523 
C 593.861559 32.109041 592.797424 31.668262 591.688 31.668262 
C 590.578576 31.668262 589.514441 32.109041 588.72996 32.893523 
C 587.945479 33.678004 587.5047 34.742138 587.5047 35.851562 
C 587.5047 36.960987 587.945479 38.025121 588.72996 38.809602 
C 589.514441 39.594084 590.578576 40.034863 591.688 40.034863 
z
" style="fill: #6baed6"/>
    </g>
    <g id="text_23">
     <!-- sapbud -->
     <g transform="translate(609.688 38.476562) scale(0.1 -0.1)">
      <defs>
       <path id="DejaVuSans-73" d="M 2834 3397 
L 2834 2853 
Q 2591 2978 2328 3040 
Q 2066 3103 1784 3103 
Q 1356 3103 1142 2972 
Q 928 2841 928 2578 
Q 928 2378 1081 2264 
Q 1234 2150 1697 2047 
L 1894 2003 
Q 2506 1872 2764 1633 
Q 3022 1394 3022 966 
Q 3022 478 2636 193 
Q 2250 -91 1575 -91 
Q 1294 -91 989 -36 
Q 684 19 347 128 
L 347 722 
Q 666 556 975 473 
Q 1284 391 1588 391 
Q 1994 391 2212 530 
Q 2431 669 2431 922 
Q 2431 1156 2273 1281 
Q 2116 1406 1581 1522 
L 1381 1569 
Q 847 1681 609 1914 
Q 372 2147 372 2553 
Q 372 3047 722 3315 
Q 1072 3584 1716 3584 
Q 2034 3584 2315 3537 
Q 2597 3491 2834 3397 
z
" transform="scale(0.015625)"/>
       <path id="DejaVuSans-61" d="M 2194 1759 
Q 1497 1759 1228 1600 
Q 959 1441 959 1056 
Q 959 750 1161 570 
Q 1363 391 1709 391 
Q 2188 391 2477 730 
Q 2766 1069 2766 1631 
L 2766 1759 
L 2194 1759 
z
M 3341 1997 
L 3341 0 
L 2766 0 
L 2766 531 
Q 2569 213 2275 61 
Q 1981 -91 1556 -91 
Q 1019 -91 701 211 
Q 384 513 384 1019 
Q 384 1609 779 1909 
Q 1175 2209 1959 2209 
L 2766 2209 
L 2766 2266 
Q 2766 2663 2505 2880 
Q 2244 3097 1772 3097 
Q 1472 3097 1187 3025 
Q 903 2953 641 2809 
L 641 3341 
Q 956 3463 1253 3523 
Q 1550 3584 1831 3584 
Q 2591 3584 2966 3190 
Q 3341 2797 3341 1997 
z
" transform="scale(0.015625)"/>
       <path id="DejaVuSans-62" d="M 3116 1747 
Q 3116 2381 2855 2742 
Q 2594 3103 2138 3103 
Q 1681 3103 1420 2742 
Q 1159 2381 1159 1747 
Q 1159 1113 1420 752 
Q 1681 391 2138 391 
Q 2594 391 2855 752 
Q 3116 1113 3116 1747 
z
M 1159 2969 
Q 1341 3281 1617 3432 
Q 1894 3584 2278 3584 
Q 2916 3584 3314 3078 
Q 3713 2572 3713 1747 
Q 3713 922 3314 415 
Q 2916 -91 2278 -91 
Q 1894 -91 1617 61 
Q 1341 213 1159 525 
L 1159 0 
L 581 0 
L 581 4863 
L 1159 4863 
L 1159 2969 
z
" transform="scale(0.015625)"/>
       <path id="DejaVuSans-64" d="M 2906 2969 
L 2906 4863 
L 3481 4863 
L 3481 0 
L 2906 0 
L 2906 525 
Q 2725 213 2448 61 
Q 2172 -91 1784 -91 
Q 1150 -91 751 415 
Q 353 922 353 1747 
Q 353 2572 751 3078 
Q 1150 3584 1784 3584 
Q 2172 3584 2448 3432 
Q 2725 3281 2906 2969 
z
M 947 1747 
Q 947 1113 1208 752 
Q 1469 391 1925 391 
Q 2381 391 2643 752 
Q 2906 1113 2906 1747 
Q 2906 2381 2643 2742 
Q 2381 3103 1925 3103 
Q 1469 3103 1208 2742 
Q 947 2381 947 1747 
z
" transform="scale(0.015625)"/>
      </defs>
      <use xlink:href="#DejaVuSans-73"/>
      <use xlink:href="#DejaVuSans-61" transform="translate(52.099609 0)"/>
      <use xlink:href="#DejaVuSans-70" transform="translate(113.378906 0)"/>
      <use xlink:href="#DejaVuSans-62" transform="translate(176.855469 0)"/>
      <use xlink:href="#DejaVuSans-75" transform="translate(240.332031 0)"/>
      <use xlink:href="#DejaVuSans-64" transform="translate(303.710938 0)"/>
     </g>
    </g>
    <g id="Path3DCollection_5">
     <path d="M 591.688 54.712988 
C 592.797424 54.712988 593.861559 54.272209 594.64604 53.487727 
C 595.430521 52.703246 595.8713 51.639112 595.8713 50.529688 
C 595.8713 49.420263 595.430521 48.356129 594.64604 47.571648 
C 593.861559 46.787166 592.797424 46.346387 591.688 46.346387 
C 590.578576 46.346387 589.514441 46.787166 588.72996 47.571648 
C 587.945479 48.356129 587.5047 49.420263 587.5047 50.529688 
C 587.5047 51.639112 587.945479 52.703246 588.72996 53.487727 
C 589.514441 54.272209 590.578576 54.712988 591.688 54.712988 
z
" style="fill: #4292c6"/>
    </g>
    <g id="text_24">
     <!-- Raffbudspec -->
     <g transform="translate(609.688 53.154688) scale(0.1 -0.1)">
      <defs>
       <path id="DejaVuSans-52" d="M 2841 2188 
Q 3044 2119 3236 1894 
Q 3428 1669 3622 1275 
L 4263 0 
L 3584 0 
L 2988 1197 
Q 2756 1666 2539 1819 
Q 2322 1972 1947 1972 
L 1259 1972 
L 1259 0 
L 628 0 
L 628 4666 
L 2053 4666 
Q 2853 4666 3247 4331 
Q 3641 3997 3641 3322 
Q 3641 2881 3436 2590 
Q 3231 2300 2841 2188 
z
M 1259 4147 
L 1259 2491 
L 2053 2491 
Q 2509 2491 2742 2702 
Q 2975 2913 2975 3322 
Q 2975 3731 2742 3939 
Q 2509 4147 2053 4147 
L 1259 4147 
z
" transform="scale(0.015625)"/>
       <path id="DejaVuSans-66" d="M 2375 4863 
L 2375 4384 
L 1825 4384 
Q 1516 4384 1395 4259 
Q 1275 4134 1275 3809 
L 1275 3500 
L 2222 3500 
L 2222 3053 
L 1275 3053 
L 1275 0 
L 697 0 
L 697 3053 
L 147 3053 
L 147 3500 
L 697 3500 
L 697 3744 
Q 697 4328 969 4595 
Q 1241 4863 1831 4863 
L 2375 4863 
z
" transform="scale(0.015625)"/>
       <path id="DejaVuSans-65" d="M 3597 1894 
L 3597 1613 
L 953 1613 
Q 991 1019 1311 708 
Q 1631 397 2203 397 
Q 2534 397 2845 478 
Q 3156 559 3463 722 
L 3463 178 
Q 3153 47 2828 -22 
Q 2503 -91 2169 -91 
Q 1331 -91 842 396 
Q 353 884 353 1716 
Q 353 2575 817 3079 
Q 1281 3584 2069 3584 
Q 2775 3584 3186 3129 
Q 3597 2675 3597 1894 
z
M 3022 2063 
Q 3016 2534 2758 2815 
Q 2500 3097 2075 3097 
Q 1594 3097 1305 2825 
Q 1016 2553 972 2059 
L 3022 2063 
z
" transform="scale(0.015625)"/>
       <path id="DejaVuSans-63" d="M 3122 3366 
L 3122 2828 
Q 2878 2963 2633 3030 
Q 2388 3097 2138 3097 
Q 1578 3097 1268 2742 
Q 959 2388 959 1747 
Q 959 1106 1268 751 
Q 1578 397 2138 397 
Q 2388 397 2633 464 
Q 2878 531 3122 666 
L 3122 134 
Q 2881 22 2623 -34 
Q 2366 -91 2075 -91 
Q 1284 -91 818 406 
Q 353 903 353 1747 
Q 353 2603 823 3093 
Q 1294 3584 2113 3584 
Q 2378 3584 2631 3529 
Q 2884 3475 3122 3366 
z
" transform="scale(0.015625)"/>
      </defs>
      <use xlink:href="#DejaVuSans-52"/>
      <use xlink:href="#DejaVuSans-61" transform="translate(67.232422 0)"/>
      <use xlink:href="#DejaVuSans-66" transform="translate(128.511719 0)"/>
      <use xlink:href="#DejaVuSans-66" transform="translate(163.716797 0)"/>
      <use xlink:href="#DejaVuSans-62" transform="translate(198.921875 0)"/>
      <use xlink:href="#DejaVuSans-75" transform="translate(262.398438 0)"/>
      <use xlink:href="#DejaVuSans-64" transform="translate(325.777344 0)"/>
      <use xlink:href="#DejaVuSans-73" transform="translate(389.253906 0)"/>
      <use xlink:href="#DejaVuSans-70" transform="translate(441.353516 0)"/>
      <use xlink:href="#DejaVuSans-65" transform="translate(504.830078 0)"/>
      <use xlink:href="#DejaVuSans-63" transform="translate(566.353516 0)"/>
     </g>
    </g>
    <g id="Path3DCollection_6">
     <path d="M 591.688 69.391113 
C 592.797424 69.391113 593.861559 68.950334 594.64604 68.165852 
C 595.430521 67.381371 595.8713 66.317237 595.8713 65.207813 
C 595.8713 64.098388 595.430521 63.034254 594.64604 62.249773 
C 593.861559 61.465291 592.797424 61.024512 591.688 61.024512 
C 590.578576 61.024512 589.514441 61.465291 588.72996 62.249773 
C 587.945479 63.034254 587.5047 64.098388 587.5047 65.207813 
C 587.5047 66.317237 587.945479 67.381371 588.72996 68.165852 
C 589.514441 68.950334 590.578576 69.391113 591.688 69.391113 
z
" style="fill: #2171b5"/>
    </g>
    <g id="text_25">
     <!-- Raffbudlag -->
     <g transform="translate(609.688 67.832813) scale(0.1 -0.1)">
      <defs>
       <path id="DejaVuSans-6c" d="M 603 4863 
L 1178 4863 
L 1178 0 
L 603 0 
L 603 4863 
z
" transform="scale(0.015625)"/>
       <path id="DejaVuSans-67" d="M 2906 1791 
Q 2906 2416 2648 2759 
Q 2391 3103 1925 3103 
Q 1463 3103 1205 2759 
Q 947 2416 947 1791 
Q 947 1169 1205 825 
Q 1463 481 1925 481 
Q 2391 481 2648 825 
Q 2906 1169 2906 1791 
z
M 3481 434 
Q 3481 -459 3084 -895 
Q 2688 -1331 1869 -1331 
Q 1566 -1331 1297 -1286 
Q 1028 -1241 775 -1147 
L 775 -588 
Q 1028 -725 1275 -790 
Q 1522 -856 1778 -856 
Q 2344 -856 2625 -561 
Q 2906 -266 2906 331 
L 2906 616 
Q 2728 306 2450 153 
Q 2172 0 1784 0 
Q 1141 0 747 490 
Q 353 981 353 1791 
Q 353 2603 747 3093 
Q 1141 3584 1784 3584 
Q 2172 3584 2450 3431 
Q 2728 3278 2906 2969 
L 2906 3500 
L 3481 3500 
L 3481 434 
z
" transform="scale(0.015625)"/>
      </defs>
      <use xlink:href="#DejaVuSans-52"/>
      <use xlink:href="#DejaVuSans-61" transform="translate(67.232422 0)"/>
      <use xlink:href="#DejaVuSans-66" transform="translate(128.511719 0)"/>
      <use xlink:href="#DejaVuSans-66" transform="translate(163.716797 0)"/>
      <use xlink:href="#DejaVuSans-62" transform="translate(198.921875 0)"/>
      <use xlink:href="#DejaVuSans-75" transform="translate(262.398438 0)"/>
      <use xlink:href="#DejaVuSans-64" transform="translate(325.777344 0)"/>
      <use xlink:href="#DejaVuSans-6c" transform="translate(389.253906 0)"/>
      <use xlink:href="#DejaVuSans-61" transform="translate(417.037109 0)"/>
      <use xlink:href="#DejaVuSans-67" transform="translate(478.316406 0)"/>
     </g>
    </g>
    <g id="Path3DCollection_7">
     <path d="M 587.5047 84.069238 
L 595.8713 84.069238 
L 595.8713 75.702637 
L 587.5047 75.702637 
z
" style="fill: #31a354"/>
    </g>
    <g id="text_26">
     <!-- infectedTHAI -->
     <g transform="translate(609.688 82.510938) scale(0.1 -0.1)">
      <defs>
       <path id="DejaVuSans-69" d="M 603 3500 
L 1178 3500 
L 1178 0 
L 603 0 
L 603 3500 
z
M 603 4863 
L 1178 4863 
L 1178 4134 
L 603 4134 
L 603 4863 
z
" transform="scale(0.015625)"/>
       <path id="DejaVuSans-6e" d="M 3513 2113 
L 3513 0 
L 2938 0 
L 2938 2094 
Q 2938 2591 2744 2837 
Q 2550 3084 2163 3084 
Q 1697 3084 1428 2787 
Q 1159 2491 1159 1978 
L 1159 0 
L 581 0 
L 581 3500 
L 1159 3500 
L 1159 2956 
Q 1366 3272 1645 3428 
Q 1925 3584 2291 3584 
Q 2894 3584 3203 3211 
Q 3513 2838 3513 2113 
z
" transform="scale(0.015625)"/>
       <path id="DejaVuSans-74" d="M 1172 4494 
L 1172 3500 
L 2356 3500 
L 2356 3053 
L 1172 3053 
L 1172 1153 
Q 1172 725 1289 603 
Q 1406 481 1766 481 
L 2356 481 
L 2356 0 
L 1766 0 
Q 1100 0 847 248 
Q 594 497 594 1153 
L 594 3053 
L 172 3053 
L 172 3500 
L 594 3500 
L 594 4494 
L 1172 4494 
z
" transform="scale(0.015625)"/>
       <path id="DejaVuSans-54" d="M -19 4666 
L 3928 4666 
L 3928 4134 
L 2272 4134 
L 2272 0 
L 1638 0 
L 1638 4134 
L -19 4134 
L -19 4666 
z
" transform="scale(0.015625)"/>
       <path id="DejaVuSans-48" d="M 628 4666 
L 1259 4666 
L 1259 2753 
L 3553 2753 
L 3553 4666 
L 4184 4666 
L 4184 0 
L 3553 0 
L 3553 2222 
L 1259 2222 
L 1259 0 
L 628 0 
L 628 4666 
z
" transform="scale(0.015625)"/>
       <path id="DejaVuSans-41" d="M 2188 4044 
L 1331 1722 
L 3047 1722 
L 2188 4044 
z
M 1831 4666 
L 2547 4666 
L 4325 0 
L 3669 0 
L 3244 1197 
L 1141 1197 
L 716 0 
L 50 0 
L 1831 4666 
z
" transform="scale(0.015625)"/>
       <path id="DejaVuSans-49" d="M 628 4666 
L 1259 4666 
L 1259 0 
L 628 0 
L 628 4666 
z
" transform="scale(0.015625)"/>
      </defs>
      <use xlink:href="#DejaVuSans-69"/>
      <use xlink:href="#DejaVuSans-6e" transform="translate(27.783203 0)"/>
      <use xlink:href="#DejaVuSans-66" transform="translate(91.162109 0)"/>
      <use xlink:href="#DejaVuSans-65" transform="translate(126.367188 0)"/>
      <use xlink:href="#DejaVuSans-63" transform="translate(187.890625 0)"/>
      <use xlink:href="#DejaVuSans-74" transform="translate(242.871094 0)"/>
      <use xlink:href="#DejaVuSans-65" transform="translate(282.080078 0)"/>
      <use xlink:href="#DejaVuSans-64" transform="translate(343.603516 0)"/>
      <use xlink:href="#DejaVuSans-54" transform="translate(407.080078 0)"/>
      <use xlink:href="#DejaVuSans-48" transform="translate(468.164062 0)"/>
      <use xlink:href="#DejaVuSans-41" transform="translate(543.359375 0)"/>
      <use xlink:href="#DejaVuSans-49" transform="translate(611.767578 0)"/>
     </g>
    </g>
    <g id="Path3DCollection_8">
     <path d="M 587.5047 98.747363 
L 595.8713 98.747363 
L 595.8713 90.380762 
L 587.5047 90.380762 
z
" style="fill: #74c476"/>
    </g>
    <g id="text_27">
     <!-- infectedCAM -->
     <g transform="translate(609.688 97.189062) scale(0.1 -0.1)">
      <defs>
       <path id="DejaVuSans-4d" d="M 628 4666 
L 1569 4666 
L 2759 1491 
L 3956 4666 
L 4897 4666 
L 4897 0 
L 4281 0 
L 4281 4097 
L 3078 897 
L 2444 897 
L 1241 4097 
L 1241 0 
L 628 0 
L 628 4666 
z
" transform="scale(0.015625)"/>
      </defs>
      <use xlink:href="#DejaVuSans-69"/>
      <use xlink:href="#DejaVuSans-6e" transform="translate(27.783203 0)"/>
      <use xlink:href="#DejaVuSans-66" transform="translate(91.162109 0)"/>
      <use xlink:href="#DejaVuSans-65" transform="translate(126.367188 0)"/>
      <use xlink:href="#DejaVuSans-63" transform="translate(187.890625 0)"/>
      <use xlink:href="#DejaVuSans-74" transform="translate(242.871094 0)"/>
      <use xlink:href="#DejaVuSans-65" transform="translate(282.080078 0)"/>
      <use xlink:href="#DejaVuSans-64" transform="translate(343.603516 0)"/>
      <use xlink:href="#DejaVuSans-43" transform="translate(407.080078 0)"/>
      <use xlink:href="#DejaVuSans-41" transform="translate(476.904297 0)"/>
      <use xlink:href="#DejaVuSans-4d" transform="translate(545.3125 0)"/>
     </g>
    </g>
    <g id="Path3DCollection_9">
     <path d="M 587.5047 113.425488 
L 595.8713 113.425488 
L 595.8713 105.058887 
L 587.5047 105.058887 
z
" style="fill: #006d2c"/>
    </g>
    <g id="text_28">
     <!-- infectedILO -->
     <g transform="translate(609.688 111.867188) scale(0.1 -0.1)">
      <defs>
       <path id="DejaVuSans-4c" d="M 628 4666 
L 1259 4666 
L 1259 531 
L 3531 531 
L 3531 0 
L 628 0 
L 628 4666 
z
" transform="scale(0.015625)"/>
       <path id="DejaVuSans-4f" d="M 2522 4238 
Q 1834 4238 1429 3725 
Q 1025 3213 1025 2328 
Q 1025 1447 1429 934 
Q 1834 422 2522 422 
Q 3209 422 3611 934 
Q 4013 1447 4013 2328 
Q 4013 3213 3611 3725 
Q 3209 4238 2522 4238 
z
M 2522 4750 
Q 3503 4750 4090 4092 
Q 4678 3434 4678 2328 
Q 4678 1225 4090 567 
Q 3503 -91 2522 -91 
Q 1538 -91 948 565 
Q 359 1222 359 2328 
Q 359 3434 948 4092 
Q 1538 4750 2522 4750 
z
" transform="scale(0.015625)"/>
      </defs>
      <use xlink:href="#DejaVuSans-69"/>
      <use xlink:href="#DejaVuSans-6e" transform="translate(27.783203 0)"/>
      <use xlink:href="#DejaVuSans-66" transform="translate(91.162109 0)"/>
      <use xlink:href="#DejaVuSans-65" transform="translate(126.367188 0)"/>
      <use xlink:href="#DejaVuSans-63" transform="translate(187.890625 0)"/>
      <use xlink:href="#DejaVuSans-74" transform="translate(242.871094 0)"/>
      <use xlink:href="#DejaVuSans-65" transform="translate(282.080078 0)"/>
      <use xlink:href="#DejaVuSans-64" transform="translate(343.603516 0)"/>
      <use xlink:href="#DejaVuSans-49" transform="translate(407.080078 0)"/>
      <use xlink:href="#DejaVuSans-4c" transform="translate(436.572266 0)"/>
      <use xlink:href="#DejaVuSans-4f" transform="translate(488.660156 0)"/>
     </g>
    </g>
    <g id="Path3DCollection_10">
     <path d="M 591.688 129.836392 
L 597.60408 123.920313 
L 591.688 118.004233 
L 585.77192 123.920313 
z
" style="fill: #fd8d3c"/>
    </g>
    <g id="text_29">
     <!-- UNinfectedTHAI -->
     <g transform="translate(609.688 126.545313) scale(0.1 -0.1)">
      <defs>
       <path id="DejaVuSans-55" d="M 556 4666 
L 1191 4666 
L 1191 1831 
Q 1191 1081 1462 751 
Q 1734 422 2344 422 
Q 2950 422 3222 751 
Q 3494 1081 3494 1831 
L 3494 4666 
L 4128 4666 
L 4128 1753 
Q 4128 841 3676 375 
Q 3225 -91 2344 -91 
Q 1459 -91 1007 375 
Q 556 841 556 1753 
L 556 4666 
z
" transform="scale(0.015625)"/>
       <path id="DejaVuSans-4e" d="M 628 4666 
L 1478 4666 
L 3547 763 
L 3547 4666 
L 4159 4666 
L 4159 0 
L 3309 0 
L 1241 3903 
L 1241 0 
L 628 0 
L 628 4666 
z
" transform="scale(0.015625)"/>
      </defs>
      <use xlink:href="#DejaVuSans-55"/>
      <use xlink:href="#DejaVuSans-4e" transform="translate(73.193359 0)"/>
      <use xlink:href="#DejaVuSans-69" transform="translate(147.998047 0)"/>
      <use xlink:href="#DejaVuSans-6e" transform="translate(175.78125 0)"/>
      <use xlink:href="#DejaVuSans-66" transform="translate(239.160156 0)"/>
      <use xlink:href="#DejaVuSans-65" transform="translate(274.365234 0)"/>
      <use xlink:href="#DejaVuSans-63" transform="translate(335.888672 0)"/>
      <use xlink:href="#DejaVuSans-74" transform="translate(390.869141 0)"/>
      <use xlink:href="#DejaVuSans-65" transform="translate(430.078125 0)"/>
      <use xlink:href="#DejaVuSans-64" transform="translate(491.601562 0)"/>
      <use xlink:href="#DejaVuSans-54" transform="translate(555.078125 0)"/>
      <use xlink:href="#DejaVuSans-48" transform="translate(616.162109 0)"/>
      <use xlink:href="#DejaVuSans-41" transform="translate(691.357422 0)"/>
      <use xlink:href="#DejaVuSans-49" transform="translate(759.765625 0)"/>
     </g>
    </g>
    <g id="Path3DCollection_11">
     <path d="M 591.688 144.514517 
L 597.60408 138.598437 
L 591.688 132.682358 
L 585.77192 138.598437 
z
" style="fill: #fdae6b"/>
    </g>
    <g id="text_30">
     <!-- UNinfectedCAM -->
     <g transform="translate(609.688 141.223437) scale(0.1 -0.1)">
      <use xlink:href="#DejaVuSans-55"/>
      <use xlink:href="#DejaVuSans-4e" transform="translate(73.193359 0)"/>
      <use xlink:href="#DejaVuSans-69" transform="translate(147.998047 0)"/>
      <use xlink:href="#DejaVuSans-6e" transform="translate(175.78125 0)"/>
      <use xlink:href="#DejaVuSans-66" transform="translate(239.160156 0)"/>
      <use xlink:href="#DejaVuSans-65" transform="translate(274.365234 0)"/>
      <use xlink:href="#DejaVuSans-63" transform="translate(335.888672 0)"/>
      <use xlink:href="#DejaVuSans-74" transform="translate(390.869141 0)"/>
      <use xlink:href="#DejaVuSans-65" transform="translate(430.078125 0)"/>
      <use xlink:href="#DejaVuSans-64" transform="translate(491.601562 0)"/>
      <use xlink:href="#DejaVuSans-43" transform="translate(555.078125 0)"/>
      <use xlink:href="#DejaVuSans-41" transform="translate(624.902344 0)"/>
      <use xlink:href="#DejaVuSans-4d" transform="translate(693.310547 0)"/>
     </g>
    </g>
    <g id="Path3DCollection_12">
     <path d="M 591.688 159.192642 
L 597.60408 153.276563 
L 591.688 147.360483 
L 585.77192 153.276563 
z
" style="fill: #fdd0a2"/>
    </g>
    <g id="text_31">
     <!-- UNinfectedILO -->
     <g transform="translate(609.688 155.901563) scale(0.1 -0.1)">
      <use xlink:href="#DejaVuSans-55"/>
      <use xlink:href="#DejaVuSans-4e" transform="translate(73.193359 0)"/>
      <use xlink:href="#DejaVuSans-69" transform="translate(147.998047 0)"/>
      <use xlink:href="#DejaVuSans-6e" transform="translate(175.78125 0)"/>
      <use xlink:href="#DejaVuSans-66" transform="translate(239.160156 0)"/>
      <use xlink:href="#DejaVuSans-65" transform="translate(274.365234 0)"/>
      <use xlink:href="#DejaVuSans-63" transform="translate(335.888672 0)"/>
      <use xlink:href="#DejaVuSans-74" transform="translate(390.869141 0)"/>
      <use xlink:href="#DejaVuSans-65" transform="translate(430.078125 0)"/>
      <use xlink:href="#DejaVuSans-64" transform="translate(491.601562 0)"/>
      <use xlink:href="#DejaVuSans-49" transform="translate(555.078125 0)"/>
      <use xlink:href="#DejaVuSans-4c" transform="translate(584.570312 0)"/>
      <use xlink:href="#DejaVuSans-4f" transform="translate(636.658203 0)"/>
     </g>
    </g>
    <g id="Path3DCollection_13">
     <defs>
      <path id="m4b228d5a98" d="M 0 0 
L 0 4.1833 
M 0 0 
L 3.34664 -2.09165 
M 0 0 
L -3.34664 -2.09165 
" style="stroke: #9e9ac8; stroke-width: 1.5"/>
     </defs>
     <g>
      <use xlink:href="#m4b228d5a98" x="591.688" y="167.954687" style="fill: #9e9ac8; stroke: #9e9ac8; stroke-width: 1.5"/>
     </g>
    </g>
    <g id="text_32">
     <!-- uninfecraffspec-stemleaf -->
     <g transform="translate(609.688 170.579687) scale(0.1 -0.1)">
      <defs>
       <path id="DejaVuSans-2d" d="M 313 2009 
L 1997 2009 
L 1997 1497 
L 313 1497 
L 313 2009 
z
" transform="scale(0.015625)"/>
       <path id="DejaVuSans-6d" d="M 3328 2828 
Q 3544 3216 3844 3400 
Q 4144 3584 4550 3584 
Q 5097 3584 5394 3201 
Q 5691 2819 5691 2113 
L 5691 0 
L 5113 0 
L 5113 2094 
Q 5113 2597 4934 2840 
Q 4756 3084 4391 3084 
Q 3944 3084 3684 2787 
Q 3425 2491 3425 1978 
L 3425 0 
L 2847 0 
L 2847 2094 
Q 2847 2600 2669 2842 
Q 2491 3084 2119 3084 
Q 1678 3084 1418 2786 
Q 1159 2488 1159 1978 
L 1159 0 
L 581 0 
L 581 3500 
L 1159 3500 
L 1159 2956 
Q 1356 3278 1631 3431 
Q 1906 3584 2284 3584 
Q 2666 3584 2933 3390 
Q 3200 3197 3328 2828 
z
" transform="scale(0.015625)"/>
      </defs>
      <use xlink:href="#DejaVuSans-75"/>
      <use xlink:href="#DejaVuSans-6e" transform="translate(63.378906 0)"/>
      <use xlink:href="#DejaVuSans-69" transform="translate(126.757812 0)"/>
      <use xlink:href="#DejaVuSans-6e" transform="translate(154.541016 0)"/>
      <use xlink:href="#DejaVuSans-66" transform="translate(217.919922 0)"/>
      <use xlink:href="#DejaVuSans-65" transform="translate(253.125 0)"/>
      <use xlink:href="#DejaVuSans-63" transform="translate(314.648438 0)"/>
      <use xlink:href="#DejaVuSans-72" transform="translate(369.628906 0)"/>
      <use xlink:href="#DejaVuSans-61" transform="translate(410.742188 0)"/>
      <use xlink:href="#DejaVuSans-66" transform="translate(472.021484 0)"/>
      <use xlink:href="#DejaVuSans-66" transform="translate(507.226562 0)"/>
      <use xlink:href="#DejaVuSans-73" transform="translate(542.431641 0)"/>
      <use xlink:href="#DejaVuSans-70" transform="translate(594.53125 0)"/>
      <use xlink:href="#DejaVuSans-65" transform="translate(658.007812 0)"/>
      <use xlink:href="#DejaVuSans-63" transform="translate(719.53125 0)"/>
      <use xlink:href="#DejaVuSans-2d" transform="translate(774.511719 0)"/>
      <use xlink:href="#DejaVuSans-73" transform="translate(810.595703 0)"/>
      <use xlink:href="#DejaVuSans-74" transform="translate(862.695312 0)"/>
      <use xlink:href="#DejaVuSans-65" transform="translate(901.904297 0)"/>
      <use xlink:href="#DejaVuSans-6d" transform="translate(963.427734 0)"/>
      <use xlink:href="#DejaVuSans-6c" transform="translate(1060.839844 0)"/>
      <use xlink:href="#DejaVuSans-65" transform="translate(1088.623047 0)"/>
      <use xlink:href="#DejaVuSans-61" transform="translate(1150.146484 0)"/>
      <use xlink:href="#DejaVuSans-66" transform="translate(1211.425781 0)"/>
     </g>
    </g>
    <g id="Path3DCollection_14">
     <path d="M 589.59635 186.816113 
L 591.688 184.724463 
L 593.77965 186.816113 
L 595.8713 184.724463 
L 593.77965 182.632812 
L 595.8713 180.541162 
L 593.77965 178.449512 
L 591.688 180.541162 
L 589.59635 178.449512 
L 587.5047 180.541162 
L 589.59635 182.632812 
L 587.5047 184.724463 
z
" style="fill: #a05a2c"/>
    </g>
    <g id="text_33">
     <!-- nonhostILO -->
     <g transform="translate(609.688 185.257812) scale(0.1 -0.1)">
      <defs>
       <path id="DejaVuSans-68" d="M 3513 2113 
L 3513 0 
L 2938 0 
L 2938 2094 
Q 2938 2591 2744 2837 
Q 2550 3084 2163 3084 
Q 1697 3084 1428 2787 
Q 1159 2491 1159 1978 
L 1159 0 
L 581 0 
L 581 4863 
L 1159 4863 
L 1159 2956 
Q 1366 3272 1645 3428 
Q 1925 3584 2291 3584 
Q 2894 3584 3203 3211 
Q 3513 2838 3513 2113 
z
" transform="scale(0.015625)"/>
      </defs>
      <use xlink:href="#DejaVuSans-6e"/>
      <use xlink:href="#DejaVuSans-6f" transform="translate(63.378906 0)"/>
      <use xlink:href="#DejaVuSans-6e" transform="translate(124.560547 0)"/>
      <use xlink:href="#DejaVuSans-68" transform="translate(187.939453 0)"/>
      <use xlink:href="#DejaVuSans-6f" transform="translate(251.318359 0)"/>
      <use xlink:href="#DejaVuSans-73" transform="translate(312.5 0)"/>
      <use xlink:href="#DejaVuSans-74" transform="translate(364.599609 0)"/>
      <use xlink:href="#DejaVuSans-49" transform="translate(403.808594 0)"/>
      <use xlink:href="#DejaVuSans-4c" transform="translate(433.300781 0)"/>
      <use xlink:href="#DejaVuSans-4f" transform="translate(485.388672 0)"/>
     </g>
    </g>
    <g id="Path3DCollection_15">
     <path d="M 589.59635 201.494238 
L 591.688 199.402588 
L 593.77965 201.494238 
L 595.8713 199.402588 
L 593.77965 197.310937 
L 595.8713 195.219287 
L 593.77965 193.127637 
L 591.688 195.219287 
L 589.59635 193.127637 
L 587.5047 195.219287 
L 589.59635 197.310937 
L 587.5047 199.402588 
z
" style="fill: #8c6d31"/>
    </g>
    <g id="text_34">
     <!-- NonhostCAM -->
     <g transform="translate(609.688 199.935937) scale(0.1 -0.1)">
      <use xlink:href="#DejaVuSans-4e"/>
      <use xlink:href="#DejaVuSans-6f" transform="translate(74.804688 0)"/>
      <use xlink:href="#DejaVuSans-6e" transform="translate(135.986328 0)"/>
      <use xlink:href="#DejaVuSans-68" transform="translate(199.365234 0)"/>
      <use xlink:href="#DejaVuSans-6f" transform="translate(262.744141 0)"/>
      <use xlink:href="#DejaVuSans-73" transform="translate(323.925781 0)"/>
      <use xlink:href="#DejaVuSans-74" transform="translate(376.025391 0)"/>
      <use xlink:href="#DejaVuSans-43" transform="translate(415.234375 0)"/>
      <use xlink:href="#DejaVuSans-41" transform="translate(485.058594 0)"/>
      <use xlink:href="#DejaVuSans-4d" transform="translate(553.466797 0)"/>
     </g>
    </g>
    <g id="Path3DCollection_16">
     <path d="M 591.688 207.805762 
L 587.5047 216.172363 
L 595.8713 216.172363 
z
" style="fill: #252525"/>
    </g>
    <g id="text_35">
     <!-- raffseed -->
     <g transform="translate(609.688 214.614062) scale(0.1 -0.1)">
      <use xlink:href="#DejaVuSans-72"/>
      <use xlink:href="#DejaVuSans-61" transform="translate(41.113281 0)"/>
      <use xlink:href="#DejaVuSans-66" transform="translate(102.392578 0)"/>
      <use xlink:href="#DejaVuSans-66" transform="translate(137.597656 0)"/>
      <use xlink:href="#DejaVuSans-73" transform="translate(172.802734 0)"/>
      <use xlink:href="#DejaVuSans-65" transform="translate(224.902344 0)"/>
      <use xlink:href="#DejaVuSans-65" transform="translate(286.425781 0)"/>
      <use xlink:href="#DejaVuSans-64" transform="translate(347.949219 0)"/>
     </g>
    </g>
    <g id="Path3DCollection_17">
     <path d="M 591.688 230.850488 
L 595.8713 222.483887 
L 587.5047 222.483887 
z
" style="fill: #f768a1"/>
    </g>
    <g id="text_36">
     <!-- Ampelopsis -->
     <g transform="translate(609.688 229.292187) scale(0.1 -0.1)">
      <use xlink:href="#DejaVuSans-41"/>
      <use xlink:href="#DejaVuSans-6d" transform="translate(68.408203 0)"/>
      <use xlink:href="#DejaVuSans-70" transform="translate(165.820312 0)"/>
      <use xlink:href="#DejaVuSans-65" transform="translate(229.296875 0)"/>
      <use xlink:href="#DejaVuSans-6c" transform="translate(290.820312 0)"/>
      <use xlink:href="#DejaVuSans-6f" transform="translate(318.603516 0)"/>
      <use xlink:href="#DejaVuSans-70" transform="translate(379.785156 0)"/>
      <use xlink:href="#DejaVuSans-73" transform="translate(443.261719 0)"/>
      <use xlink:href="#DejaVuSans-69" transform="translate(495.361328 0)"/>
      <use xlink:href="#DejaVuSans-73" transform="translate(523.144531 0)"/>
     </g>
    </g>
   </g>
   <g id="Path3DCollection_18">
    <g clip-path="url(#p116f5eeb9b)">
     <use xlink:href="#m4b228d5a98" x="226.927055" y="349.514783" style="fill: #9e9ac8; stroke: #9e9ac8; stroke-width: 1.5"/>
     <use xlink:href="#m4b228d5a98" x="224.825592" y="350.72621" style="fill: #9e9ac8; stroke: #9e9ac8; stroke-width: 1.5"/>
     <use xlink:href="#m4b228d5a98" x="226.532282" y="359.727067" style="fill: #9e9ac8; stroke: #9e9ac8; stroke-width: 1.5"/>
     <use xlink:href="#m4b228d5a98" x="226.269347" y="358.745638" style="fill: #9e9ac8; stroke: #9e9ac8; stroke-width: 1.5"/>
    </g>
   </g>
   <g id="Path3DCollection_19">
    <defs>
     <path id="C1_0_f0e60659e0" d="M -0 5.91608 
L 5.91608 -0 
L 0 -5.91608 
L -5.91608 -0 
z
"/>
    </defs>
    <g clip-path="url(#p116f5eeb9b)">
     <use xlink:href="#C1_0_f0e60659e0" x="145.971008" y="345.901894" style="fill: #fdd0a2"/>
    </g>
    <g clip-path="url(#p116f5eeb9b)">
     <use xlink:href="#C1_0_f0e60659e0" x="148.036164" y="344.726473" style="fill: #fdd0a2"/>
    </g>
    <g clip-path="url(#p116f5eeb9b)">
     <use xlink:href="#C1_0_f0e60659e0" x="170.932564" y="347.245772" style="fill: #fdd0a2"/>
    </g>
    <g clip-path="url(#p116f5eeb9b)">
     <use xlink:href="#C1_0_f0e60659e0" x="170.991967" y="349.632588" style="fill: #fdd0a2"/>
    </g>
    <g clip-path="url(#p116f5eeb9b)">
     <use xlink:href="#C1_0_f0e60659e0" x="179.387697" y="353.855624" style="fill: #fdd0a2"/>
    </g>
    <g clip-path="url(#p116f5eeb9b)">
     <use xlink:href="#C1_0_f0e60659e0" x="179.358266" y="353.040445" style="fill: #fdd0a2"/>
    </g>
    <g clip-path="url(#p116f5eeb9b)">
     <use xlink:href="#C1_0_f0e60659e0" x="184.110065" y="355.813816" style="fill: #fdd0a2"/>
    </g>
    <g clip-path="url(#p116f5eeb9b)">
     <use xlink:href="#C1_0_f0e60659e0" x="185.315925" y="355.552768" style="fill: #fdd0a2"/>
    </g>
    <g clip-path="url(#p116f5eeb9b)">
     <use xlink:href="#C1_0_f0e60659e0" x="179.891584" y="358.376734" style="fill: #fdd0a2"/>
    </g>
    <g clip-path="url(#p116f5eeb9b)">
     <use xlink:href="#C1_0_f0e60659e0" x="180.04537" y="360.193261" style="fill: #fdd0a2"/>
    </g>
    <g clip-path="url(#p116f5eeb9b)">
     <use xlink:href="#C1_0_f0e60659e0" x="185.980034" y="359.14756" style="fill: #fdd0a2"/>
    </g>
    <g clip-path="url(#p116f5eeb9b)">
     <use xlink:href="#C1_0_f0e60659e0" x="187.070791" y="359.592356" style="fill: #fdd0a2"/>
    </g>
    <g clip-path="url(#p116f5eeb9b)">
     <use xlink:href="#C1_0_f0e60659e0" x="191.606505" y="353.206882" style="fill: #fdd0a2"/>
    </g>
    <g clip-path="url(#p116f5eeb9b)">
     <use xlink:href="#C1_0_f0e60659e0" x="192.389947" y="355.003062" style="fill: #fdd0a2"/>
    </g>
    <g clip-path="url(#p116f5eeb9b)">
     <use xlink:href="#C1_0_f0e60659e0" x="215.3101" y="361.885132" style="fill: #fdd0a2"/>
    </g>
    <g clip-path="url(#p116f5eeb9b)">
     <use xlink:href="#C1_0_f0e60659e0" x="215.618068" y="362.097997" style="fill: #fdd0a2"/>
    </g>
    <g clip-path="url(#p116f5eeb9b)">
     <use xlink:href="#C1_0_f0e60659e0" x="211.503556" y="367.002103" style="fill: #fdd0a2"/>
    </g>
    <g clip-path="url(#p116f5eeb9b)">
     <use xlink:href="#C1_0_f0e60659e0" x="212.687337" y="368.148126" style="fill: #fdd0a2"/>
    </g>
    <g clip-path="url(#p116f5eeb9b)">
     <use xlink:href="#C1_0_f0e60659e0" x="216.177828" y="371.132407" style="fill: #fdd0a2"/>
    </g>
    <g clip-path="url(#p116f5eeb9b)">
     <use xlink:href="#C1_0_f0e60659e0" x="216.160702" y="372.08197" style="fill: #fdd0a2"/>
    </g>
   </g>
   <g id="Path3DCollection_20">
    <defs>
     <path id="C2_0_7290ff076c" d="M -4.1833 4.1833 
L 4.1833 4.1833 
L 4.1833 -4.1833 
L -4.1833 -4.1833 
z
"/>
    </defs>
    <g clip-path="url(#p116f5eeb9b)">
     <use xlink:href="#C2_0_7290ff076c" x="181.396939" y="355.386459" style="fill: #006d2c"/>
    </g>
    <g clip-path="url(#p116f5eeb9b)">
     <use xlink:href="#C2_0_7290ff076c" x="182.011161" y="355.610589" style="fill: #006d2c"/>
    </g>
    <g clip-path="url(#p116f5eeb9b)">
     <use xlink:href="#C2_0_7290ff076c" x="190.122289" y="357.286417" style="fill: #006d2c"/>
    </g>
    <g clip-path="url(#p116f5eeb9b)">
     <use xlink:href="#C2_0_7290ff076c" x="189.414932" y="356.564647" style="fill: #006d2c"/>
    </g>
    <g clip-path="url(#p116f5eeb9b)">
     <use xlink:href="#C2_0_7290ff076c" x="188.459339" y="367.130049" style="fill: #006d2c"/>
    </g>
    <g clip-path="url(#p116f5eeb9b)">
     <use xlink:href="#C2_0_7290ff076c" x="190.343679" y="368.098523" style="fill: #006d2c"/>
    </g>
    <g clip-path="url(#p116f5eeb9b)">
     <use xlink:href="#C2_0_7290ff076c" x="196.626408" y="360.527717" style="fill: #006d2c"/>
    </g>
    <g clip-path="url(#p116f5eeb9b)">
     <use xlink:href="#C2_0_7290ff076c" x="197.849704" y="360.74508" style="fill: #006d2c"/>
    </g>
    <g clip-path="url(#p116f5eeb9b)">
     <use xlink:href="#C2_0_7290ff076c" x="213.470497" y="367.383269" style="fill: #006d2c"/>
    </g>
    <g clip-path="url(#p116f5eeb9b)">
     <use xlink:href="#C2_0_7290ff076c" x="214.751183" y="368.719754" style="fill: #006d2c"/>
    </g>
    <g clip-path="url(#p116f5eeb9b)">
     <use xlink:href="#C2_0_7290ff076c" x="214.825752" y="369.126936" style="fill: #006d2c"/>
    </g>
    <g clip-path="url(#p116f5eeb9b)">
     <use xlink:href="#C2_0_7290ff076c" x="216.393213" y="369.5102" style="fill: #006d2c"/>
    </g>
    <g clip-path="url(#p116f5eeb9b)">
     <use xlink:href="#C2_0_7290ff076c" x="218.307385" y="366.095637" style="fill: #006d2c"/>
    </g>
    <g clip-path="url(#p116f5eeb9b)">
     <use xlink:href="#C2_0_7290ff076c" x="217.623765" y="368.343076" style="fill: #006d2c"/>
    </g>
    <g clip-path="url(#p116f5eeb9b)">
     <use xlink:href="#C2_0_7290ff076c" x="216.612261" y="369.852809" style="fill: #006d2c"/>
    </g>
    <g clip-path="url(#p116f5eeb9b)">
     <use xlink:href="#C2_0_7290ff076c" x="216.577839" y="370.163159" style="fill: #006d2c"/>
    </g>
    <g clip-path="url(#p116f5eeb9b)">
     <use xlink:href="#C2_0_7290ff076c" x="214.800592" y="378.660354" style="fill: #006d2c"/>
    </g>
    <g clip-path="url(#p116f5eeb9b)">
     <use xlink:href="#C2_0_7290ff076c" x="212.070589" y="383.272946" style="fill: #006d2c"/>
    </g>
   </g>
   <g id="Path3DCollection_21">
    <path d="M 189.130047 380.543246 
L 197.496647 380.543246 
L 197.496647 372.176646 
L 189.130047 372.176646 
z
" clip-path="url(#p116f5eeb9b)" style="fill: #31a354"/>
    <path d="M 189.726242 382.828951 
L 198.092842 382.828951 
L 198.092842 374.46235 
L 189.726242 374.46235 
z
" clip-path="url(#p116f5eeb9b)" style="fill: #31a354"/>
    <path d="M 196.95084 376.741663 
L 205.31744 376.741663 
L 205.31744 368.375062 
L 196.95084 368.375062 
z
" clip-path="url(#p116f5eeb9b)" style="fill: #31a354"/>
    <path d="M 197.072086 382.13035 
L 205.438686 382.13035 
L 205.438686 373.763749 
L 197.072086 373.763749 
z
" clip-path="url(#p116f5eeb9b)" style="fill: #31a354"/>
   </g>
   <g id="Path3DCollection_22">
    <path d="M 431.199101 385.819061 
L 427.015801 394.185662 
L 435.382401 394.185662 
z
" clip-path="url(#p116f5eeb9b)" style="fill: #252525"/>
    <path d="M 420.260086 386.033208 
L 416.076786 394.399808 
L 424.443387 394.399808 
z
" clip-path="url(#p116f5eeb9b)" style="fill: #252525"/>
    <path d="M 497.756155 394.904261 
L 493.572855 403.270862 
L 501.939455 403.270862 
z
" clip-path="url(#p116f5eeb9b)" style="fill: #252525"/>
    <path d="M 508.143171 393.763052 
L 503.959871 402.129652 
L 512.326471 402.129652 
z
" clip-path="url(#p116f5eeb9b)" style="fill: #252525"/>
   </g>
   <g id="Path3DCollection_23">
    <path d="M 203.063684 377.327372 
L 208.979764 371.411292 
L 203.063684 365.495212 
L 197.147604 371.411292 
z
" clip-path="url(#p116f5eeb9b)" style="fill: #fd8d3c"/>
    <path d="M 204.786171 378.11139 
L 210.702251 372.19531 
L 204.786171 366.27923 
L 198.870091 372.19531 
z
" clip-path="url(#p116f5eeb9b)" style="fill: #fd8d3c"/>
    <path d="M 220.900565 343.559455 
L 226.816645 337.643375 
L 220.900565 331.727295 
L 214.984485 337.643375 
z
" clip-path="url(#p116f5eeb9b)" style="fill: #fd8d3c"/>
    <path d="M 221.194821 342.13185 
L 227.110901 336.215771 
L 221.194821 330.299691 
L 215.278741 336.215771 
z
" clip-path="url(#p116f5eeb9b)" style="fill: #fd8d3c"/>
   </g>
   <g id="Path3DCollection_24">
    <defs>
     <path id="C3_0_2c39ab6b8b" d="M -2.09165 4.1833 
L 0 2.09165 
L 2.09165 4.1833 
L 4.1833 2.09165 
L 2.09165 -0 
L 4.1833 -2.09165 
L 2.09165 -4.1833 
L 0 -2.09165 
L -2.09165 -4.1833 
L -4.1833 -2.09165 
L -2.09165 0 
L -4.1833 2.09165 
z
"/>
    </defs>
    <g clip-path="url(#p116f5eeb9b)">
     <use xlink:href="#C3_0_2c39ab6b8b" x="212.455479" y="304.812855" style="fill: #8c6d31"/>
    </g>
    <g clip-path="url(#p116f5eeb9b)">
     <use xlink:href="#C3_0_2c39ab6b8b" x="212.323169" y="302.013381" style="fill: #8c6d31"/>
    </g>
    <g clip-path="url(#p116f5eeb9b)">
     <use xlink:href="#C3_0_2c39ab6b8b" x="210.299921" y="279.179771" style="fill: #8c6d31"/>
    </g>
    <g clip-path="url(#p116f5eeb9b)">
     <use xlink:href="#C3_0_2c39ab6b8b" x="212.176975" y="279.751207" style="fill: #8c6d31"/>
    </g>
   </g>
   <g id="Path3DCollection_25">
    <path d="M 217.238686 318.578279 
L 221.421986 310.211679 
L 213.055386 310.211679 
z
" clip-path="url(#p116f5eeb9b)" style="fill: #f768a1"/>
    <path d="M 217.094551 316.646898 
L 221.277852 308.280298 
L 212.911251 308.280298 
z
" clip-path="url(#p116f5eeb9b)" style="fill: #f768a1"/>
    <path d="M 225.232692 354.36239 
L 229.415992 345.995789 
L 221.049391 345.995789 
z
" clip-path="url(#p116f5eeb9b)" style="fill: #f768a1"/>
    <path d="M 224.505779 356.146468 
L 228.689079 347.779867 
L 220.322479 347.779867 
z
" clip-path="url(#p116f5eeb9b)" style="fill: #f768a1"/>
    <path d="M 224.560636 332.724828 
L 228.743936 324.358227 
L 220.377335 324.358227 
z
" clip-path="url(#p116f5eeb9b)" style="fill: #f768a1"/>
    <path d="M 225.714362 333.942464 
L 229.897662 325.575864 
L 221.531061 325.575864 
z
" clip-path="url(#p116f5eeb9b)" style="fill: #f768a1"/>
    <path d="M 239.301631 310.092544 
L 243.484931 301.725943 
L 235.118331 301.725943 
z
" clip-path="url(#p116f5eeb9b)" style="fill: #f768a1"/>
    <path d="M 239.161745 305.810102 
L 243.345045 297.443502 
L 234.978445 297.443502 
z
" clip-path="url(#p116f5eeb9b)" style="fill: #f768a1"/>
    <path d="M 227.551914 293.344126 
L 231.735214 284.977525 
L 223.368614 284.977525 
z
" clip-path="url(#p116f5eeb9b)" style="fill: #f768a1"/>
    <path d="M 229.601161 292.214153 
L 233.784461 283.847552 
L 225.417861 283.847552 
z
" clip-path="url(#p116f5eeb9b)" style="fill: #f768a1"/>
    <path d="M 206.148382 210.09492 
L 210.331682 201.72832 
L 201.965082 201.72832 
z
" clip-path="url(#p116f5eeb9b)" style="fill: #f768a1"/>
    <path d="M 209.046975 202.368525 
L 213.230275 194.001925 
L 204.863675 194.001925 
z
" clip-path="url(#p116f5eeb9b)" style="fill: #f768a1"/>
    <path d="M 217.532527 261.249898 
L 221.715827 252.883298 
L 213.349227 252.883298 
z
" clip-path="url(#p116f5eeb9b)" style="fill: #f768a1"/>
    <path d="M 217.83478 256.135921 
L 222.01808 247.76932 
L 213.651479 247.76932 
z
" clip-path="url(#p116f5eeb9b)" style="fill: #f768a1"/>
    <path d="M 228.311929 180.111239 
L 232.49523 171.744639 
L 224.128629 171.744639 
z
" clip-path="url(#p116f5eeb9b)" style="fill: #f768a1"/>
    <path d="M 231.868636 177.066416 
L 236.051937 168.699815 
L 227.685336 168.699815 
z
" clip-path="url(#p116f5eeb9b)" style="fill: #f768a1"/>
   </g>
   <g id="Path3DCollection_26">
    <defs>
     <path id="C4_0_edd5e06f77" d="M 0 4.1833 
C 1.109424 4.1833 2.173559 3.742521 2.95804 2.95804 
C 3.742521 2.173559 4.1833 1.109424 4.1833 -0 
C 4.1833 -1.109424 3.742521 -2.173559 2.95804 -2.95804 
C 2.173559 -3.742521 1.109424 -4.1833 0 -4.1833 
C -1.109424 -4.1833 -2.173559 -3.742521 -2.95804 -2.95804 
C -3.742521 -2.173559 -4.1833 -1.109424 -4.1833 0 
C -4.1833 1.109424 -3.742521 2.173559 -2.95804 2.95804 
C -2.173559 3.742521 -1.109424 4.1833 0 4.1833 
z
"/>
    </defs>
    <g clip-path="url(#p116f5eeb9b)">
     <use xlink:href="#C4_0_edd5e06f77" x="208.310592" y="369.820521" style="fill: #4292c6"/>
    </g>
    <g clip-path="url(#p116f5eeb9b)">
     <use xlink:href="#C4_0_edd5e06f77" x="208.40329" y="370.399836" style="fill: #4292c6"/>
    </g>
    <g clip-path="url(#p116f5eeb9b)">
     <use xlink:href="#C4_0_edd5e06f77" x="212.853875" y="385.016599" style="fill: #4292c6"/>
    </g>
    <g clip-path="url(#p116f5eeb9b)">
     <use xlink:href="#C4_0_edd5e06f77" x="213.089908" y="384.681981" style="fill: #4292c6"/>
    </g>
    <g clip-path="url(#p116f5eeb9b)">
     <use xlink:href="#C4_0_edd5e06f77" x="225.495034" y="383.569826" style="fill: #4292c6"/>
    </g>
    <g clip-path="url(#p116f5eeb9b)">
     <use xlink:href="#C4_0_edd5e06f77" x="226.591703" y="384.313398" style="fill: #4292c6"/>
    </g>
    <g clip-path="url(#p116f5eeb9b)">
     <use xlink:href="#C4_0_edd5e06f77" x="226.536089" y="412.628683" style="fill: #4292c6"/>
    </g>
    <g clip-path="url(#p116f5eeb9b)">
     <use xlink:href="#C4_0_edd5e06f77" x="228.550432" y="413.113757" style="fill: #4292c6"/>
    </g>
    <g clip-path="url(#p116f5eeb9b)">
     <use xlink:href="#C4_0_edd5e06f77" x="246.974061" y="410.705532" style="fill: #4292c6"/>
    </g>
    <g clip-path="url(#p116f5eeb9b)">
     <use xlink:href="#C4_0_edd5e06f77" x="247.098943" y="409.791903" style="fill: #4292c6"/>
    </g>
    <g clip-path="url(#p116f5eeb9b)">
     <use xlink:href="#C4_0_edd5e06f77" x="235.305765" y="414.282212" style="fill: #4292c6"/>
    </g>
    <g clip-path="url(#p116f5eeb9b)">
     <use xlink:href="#C4_0_edd5e06f77" x="235.49491" y="413.481724" style="fill: #4292c6"/>
    </g>
    <g clip-path="url(#p116f5eeb9b)">
     <use xlink:href="#C4_0_edd5e06f77" x="243.065011" y="414.745543" style="fill: #4292c6"/>
    </g>
    <g clip-path="url(#p116f5eeb9b)">
     <use xlink:href="#C4_0_edd5e06f77" x="244.086647" y="415.118462" style="fill: #4292c6"/>
    </g>
    <g clip-path="url(#p116f5eeb9b)">
     <use xlink:href="#C4_0_edd5e06f77" x="243.864879" y="421.122214" style="fill: #4292c6"/>
    </g>
    <g clip-path="url(#p116f5eeb9b)">
     <use xlink:href="#C4_0_edd5e06f77" x="242.986679" y="420.860411" style="fill: #4292c6"/>
    </g>
   </g>
   <g id="Path3DCollection_27">
    <defs>
     <path id="C5_0_61cc0ec447" d="M 0 4.1833 
C 1.109424 4.1833 2.173559 3.742521 2.95804 2.95804 
C 3.742521 2.173559 4.1833 1.109424 4.1833 -0 
C 4.1833 -1.109424 3.742521 -2.173559 2.95804 -2.95804 
C 2.173559 -3.742521 1.109424 -4.1833 0 -4.1833 
C -1.109424 -4.1833 -2.173559 -3.742521 -2.95804 -2.95804 
C -3.742521 -2.173559 -4.1833 -1.109424 -4.1833 0 
C -4.1833 1.109424 -3.742521 2.173559 -2.95804 2.95804 
C -2.173559 3.742521 -1.109424 4.1833 0 4.1833 
z
"/>
    </defs>
    <g clip-path="url(#p116f5eeb9b)">
     <use xlink:href="#C5_0_61cc0ec447" x="215.528932" y="422.593027" style="fill: #6baed6"/>
    </g>
    <g clip-path="url(#p116f5eeb9b)">
     <use xlink:href="#C5_0_61cc0ec447" x="214.462464" y="423.844799" style="fill: #6baed6"/>
    </g>
    <g clip-path="url(#p116f5eeb9b)">
     <use xlink:href="#C5_0_61cc0ec447" x="226.699219" y="434.542906" style="fill: #6baed6"/>
    </g>
    <g clip-path="url(#p116f5eeb9b)">
     <use xlink:href="#C5_0_61cc0ec447" x="228.131177" y="436.167576" style="fill: #6baed6"/>
    </g>
   </g>
   <g id="Path3DCollection_28">
    <defs>
     <path id="C6_0_9d803e5fa7" d="M 0 4.1833 
C 1.109424 4.1833 2.173559 3.742521 2.95804 2.95804 
C 3.742521 2.173559 4.1833 1.109424 4.1833 -0 
C 4.1833 -1.109424 3.742521 -2.173559 2.95804 -2.95804 
C 2.173559 -3.742521 1.109424 -4.1833 0 -4.1833 
C -1.109424 -4.1833 -2.173559 -3.742521 -2.95804 -2.95804 
C -3.742521 -2.173559 -4.1833 -1.109424 -4.1833 0 
C -4.1833 1.109424 -3.742521 2.173559 -2.95804 2.95804 
C -2.173559 3.742521 -1.109424 4.1833 0 4.1833 
z
"/>
    </defs>
    <g clip-path="url(#p116f5eeb9b)">
     <use xlink:href="#C6_0_9d803e5fa7" x="236.068685" y="410.70915" style="fill: #2171b5"/>
    </g>
    <g clip-path="url(#p116f5eeb9b)">
     <use xlink:href="#C6_0_9d803e5fa7" x="236.03239" y="417.310061" style="fill: #2171b5"/>
    </g>
    <g clip-path="url(#p116f5eeb9b)">
     <use xlink:href="#C6_0_9d803e5fa7" x="239.466191" y="447.285988" style="fill: #2171b5"/>
    </g>
    <g clip-path="url(#p116f5eeb9b)">
     <use xlink:href="#C6_0_9d803e5fa7" x="240.648249" y="445.103378" style="fill: #2171b5"/>
    </g>
   </g>
  </g>
 </g>
 <defs>
  <clipPath id="p116f5eeb9b">
   <rect x="7.2" y="7.2" width="554.4" height="554.4"/>
  </clipPath>
 </defs>
</svg>
