<?xml version="1.0" encoding="utf-8" standalone="no"?>
<!DOCTYPE svg PUBLIC "-//W3C//DTD SVG 1.1//EN"
  "http://www.w3.org/Graphics/SVG/1.1/DTD/svg11.dtd">
<svg xmlns:xlink="http://www.w3.org/1999/xlink" width="702.267687pt" height="568.8pt" viewBox="0 0 702.267687 568.8" xmlns="http://www.w3.org/2000/svg" version="1.1">
 <metadata>
  <rdf:RDF xmlns:dc="http://purl.org/dc/elements/1.1/" xmlns:cc="http://creativecommons.org/ns#" xmlns:rdf="http://www.w3.org/1999/02/22-rdf-syntax-ns#">
   <cc:Work>
    <dc:type rdf:resource="http://purl.org/dc/dcmitype/StillImage"/>
    <dc:date>2026-05-23T07:28:38.627573</dc:date>
    <dc:format>image/svg+xml</dc:format>
    <dc:creator>
     <cc:Agent>
      <dc:title>Matplotlib v3.10.9, https://matplotlib.org/</dc:title>
     </cc:Agent>
    </dc:creator>
   </cc:Work>
  </rdf:RDF>
 </metadata>
 <defs>
  <style type="text/css">*{stroke-linejoin: round; stroke-linecap: butt}</style>
 </defs>
 <g id="figure_1">
  <g id="patch_1">
   <path d="M 0 568.8 
L 702.267687 568.8 
L 702.267687 0 
L 0 0 
z
" style="fill: #ffffff"/>
  </g>
  <g id="patch_2">
   <path d="M 7.2 561.6 
L 561.6 561.6 
L 561.6 7.2 
L 7.2 7.2 
z
" style="fill: #ffffff"/>
  </g>
  <g id="pane3d_1">
   <g id="patch_3">
    <path d="M 50.759925 381.3775 
L 331.948475 305.234745 
L 333.212244 72.117637 
L 42.66913 136.009467 
" style="fill: #f2f2f2; opacity: 0.5; stroke: #f2f2f2; stroke-linejoin: miter"/>
   </g>
  </g>
  <g id="pane3d_2">
   <g id="patch_4">
    <path d="M 331.948475 305.234745 
L 539.539421 416.916187 
L 548.081106 165.915228 
L 333.212244 72.117637 
" style="fill: #e6e6e6; opacity: 0.5; stroke: #e6e6e6; stroke-linejoin: miter"/>
   </g>
  </g>
  <g id="pane3d_3">
   <g id="patch_5">
    <path d="M 50.759925 381.3775 
L 245.283459 507.907181 
L 539.539421 416.916187 
L 331.948475 305.234745 
" style="fill: #ececec; opacity: 0.5; stroke: #ececec; stroke-linejoin: miter"/>
   </g>
  </g>
  <g id="grid3d_1">
   <g id="Line3DCollection_1">
    <path d="M 69.9136 393.836189 
L 352.491402 316.286594 
L 354.420889 81.375934 
" style="fill: none; stroke: #b0b0b0; stroke-width: 0.8"/>
    <path d="M 98.503605 412.43283 
L 383.113236 332.760774 
L 386.057231 95.186277 
" style="fill: none; stroke: #b0b0b0; stroke-width: 0.8"/>
    <path d="M 127.90589 431.557826 
L 414.552905 349.674939 
L 418.566147 109.377528 
" style="fill: none; stroke: #b0b0b0; stroke-width: 0.8"/>
    <path d="M 158.155571 451.234018 
L 446.843613 367.046953 
L 451.984241 123.965667 
" style="fill: none; stroke: #b0b0b0; stroke-width: 0.8"/>
    <path d="M 189.289818 471.485585 
L 480.020393 384.895663 
L 486.350195 138.967579 
" style="fill: none; stroke: #b0b0b0; stroke-width: 0.8"/>
    <path d="M 221.348007 492.338139 
L 514.12022 403.240962 
L 521.704916 154.401121 
" style="fill: none; stroke: #b0b0b0; stroke-width: 0.8"/>
   </g>
  </g>
  <g id="grid3d_2">
   <g id="Line3DCollection_2">
    <path d="M 55.249522 133.242979 
L 62.912684 378.086667 
L 258.068733 503.953668 
" style="fill: none; stroke: #b0b0b0; stroke-width: 0.8"/>
    <path d="M 118.211411 119.397356 
L 123.765045 361.608519 
L 321.995844 484.185873 
" style="fill: none; stroke: #b0b0b0; stroke-width: 0.8"/>
    <path d="M 179.560372 105.906424 
L 183.107747 345.539171 
L 384.188991 464.954262 
" style="fill: none; stroke: #b0b0b0; stroke-width: 0.8"/>
    <path d="M 239.3576 92.756725 
L 240.996281 329.863595 
L 444.717776 446.237312 
" style="fill: none; stroke: #b0b0b0; stroke-width: 0.8"/>
    <path d="M 297.661232 79.935476 
L 297.48345 314.567493 
L 503.648129 428.014635 
" style="fill: none; stroke: #b0b0b0; stroke-width: 0.8"/>
   </g>
  </g>
  <g id="grid3d_3">
   <g id="Line3DCollection_3">
    <path d="M 540.240753 396.307263 
L 332.05251 286.044119 
L 50.095062 361.214298 
" style="fill: none; stroke: #b0b0b0; stroke-width: 0.8"/>
    <path d="M 541.333483 364.196939 
L 332.214509 256.161514 
L 49.059349 329.804432 
" style="fill: none; stroke: #b0b0b0; stroke-width: 0.8"/>
    <path d="M 542.435871 331.802797 
L 332.37782 226.036854 
L 48.014725 298.124326 
" style="fill: none; stroke: #b0b0b0; stroke-width: 0.8"/>
    <path d="M 543.548047 299.121057 
L 332.54246 195.667184 
L 46.961075 266.170478 
" style="fill: none; stroke: #b0b0b0; stroke-width: 0.8"/>
    <path d="M 544.67014 266.147872 
L 332.708444 165.049505 
L 45.898281 233.939325 
" style="fill: none; stroke: #b0b0b0; stroke-width: 0.8"/>
    <path d="M 545.802285 232.879325 
L 332.875789 134.180765 
L 44.826224 201.42724 
" style="fill: none; stroke: #b0b0b0; stroke-width: 0.8"/>
    <path d="M 546.944617 199.311432 
L 333.044512 103.057863 
L 43.744781 168.630534 
" style="fill: none; stroke: #b0b0b0; stroke-width: 0.8"/>
   </g>
  </g>
  <g id="axis3d_1">
   <g id="line2d_1">
    <path d="M 50.759925 381.3775 
L 245.283459 507.907181 
" style="fill: none; stroke: #000000; stroke-width: 0.8; stroke-linecap: square"/>
   </g>
   <g id="xtick_1">
    <g id="line2d_2">
     <path d="M 72.313263 393.177635 
L 65.107121 395.155262 
" style="fill: none; stroke: #000000; stroke-width: 0.8; stroke-linecap: square"/>
    </g>
    <g id="text_1">
     <!-- −20 -->
     <g transform="translate(47.685069 414.258005) scale(0.1 -0.1)">
      <defs>
       <path id="DejaVuSans-2212" d="M 678 2272 
L 4684 2272 
L 4684 1741 
L 678 1741 
L 678 2272 
z
" transform="scale(0.015625)"/>
       <path id="DejaVuSans-32" d="M 1228 531 
L 3431 531 
L 3431 0 
L 469 0 
L 469 531 
Q 828 903 1448 1529 
Q 2069 2156 2228 2338 
Q 2531 2678 2651 2914 
Q 2772 3150 2772 3378 
Q 2772 3750 2511 3984 
Q 2250 4219 1831 4219 
Q 1534 4219 1204 4116 
Q 875 4013 500 3803 
L 500 4441 
Q 881 4594 1212 4672 
Q 1544 4750 1819 4750 
Q 2544 4750 2975 4387 
Q 3406 4025 3406 3419 
Q 3406 3131 3298 2873 
Q 3191 2616 2906 2266 
Q 2828 2175 2409 1742 
Q 1991 1309 1228 531 
z
" transform="scale(0.015625)"/>
       <path id="DejaVuSans-30" d="M 2034 4250 
Q 1547 4250 1301 3770 
Q 1056 3291 1056 2328 
Q 1056 1369 1301 889 
Q 1547 409 2034 409 
Q 2525 409 2770 889 
Q 3016 1369 3016 2328 
Q 3016 3291 2770 3770 
Q 2525 4250 2034 4250 
z
M 2034 4750 
Q 2819 4750 3233 4129 
Q 3647 3509 3647 2328 
Q 3647 1150 3233 529 
Q 2819 -91 2034 -91 
Q 1250 -91 836 529 
Q 422 1150 422 2328 
Q 422 3509 836 4129 
Q 1250 4750 2034 4750 
z
" transform="scale(0.015625)"/>
      </defs>
      <use xlink:href="#DejaVuSans-2212"/>
      <use xlink:href="#DejaVuSans-32" transform="translate(83.789062 0)"/>
      <use xlink:href="#DejaVuSans-30" transform="translate(147.412109 0)"/>
     </g>
    </g>
   </g>
   <g id="xtick_2">
    <g id="line2d_3">
     <path d="M 100.922483 411.755702 
L 93.658538 413.789131 
" style="fill: none; stroke: #000000; stroke-width: 0.8; stroke-linecap: square"/>
    </g>
    <g id="text_2">
     <!-- −10 -->
     <g transform="translate(76.145159 433.056473) scale(0.1 -0.1)">
      <defs>
       <path id="DejaVuSans-31" d="M 794 531 
L 1825 531 
L 1825 4091 
L 703 3866 
L 703 4441 
L 1819 4666 
L 2450 4666 
L 2450 531 
L 3481 531 
L 3481 0 
L 794 0 
L 794 531 
z
" transform="scale(0.015625)"/>
      </defs>
      <use xlink:href="#DejaVuSans-2212"/>
      <use xlink:href="#DejaVuSans-31" transform="translate(83.789062 0)"/>
      <use xlink:href="#DejaVuSans-30" transform="translate(147.412109 0)"/>
     </g>
    </g>
   </g>
   <g id="xtick_3">
    <g id="line2d_4">
     <path d="M 130.344114 430.861328 
L 123.021967 432.952955 
" style="fill: none; stroke: #000000; stroke-width: 0.8; stroke-linecap: square"/>
    </g>
    <g id="text_3">
     <!-- 0 -->
     <g transform="translate(112.785904 452.389671) scale(0.1 -0.1)">
      <use xlink:href="#DejaVuSans-30"/>
     </g>
    </g>
   </g>
   <g id="xtick_4">
    <g id="line2d_5">
     <path d="M 160.613261 450.517308 
L 153.23255 452.669667 
" style="fill: none; stroke: #000000; stroke-width: 0.8; stroke-linecap: square"/>
    </g>
    <g id="text_4">
     <!-- 10 -->
     <g transform="translate(139.718904 472.280744) scale(0.1 -0.1)">
      <use xlink:href="#DejaVuSans-31"/>
      <use xlink:href="#DejaVuSans-30" transform="translate(63.623047 0)"/>
     </g>
    </g>
   </g>
   <g id="xtick_5">
    <g id="line2d_6">
     <path d="M 191.767077 470.747769 
L 184.327485 472.963545 
" style="fill: none; stroke: #000000; stroke-width: 0.8; stroke-linecap: square"/>
    </g>
    <g id="text_5">
     <!-- 20 -->
     <g transform="translate(170.714848 492.754194) scale(0.1 -0.1)">
      <use xlink:href="#DejaVuSans-32"/>
      <use xlink:href="#DejaVuSans-30" transform="translate(63.623047 0)"/>
     </g>
    </g>
   </g>
   <g id="xtick_6">
    <g id="line2d_7">
     <path d="M 223.844924 491.578271 
L 216.346179 493.860308 
" style="fill: none; stroke: #000000; stroke-width: 0.8; stroke-linecap: square"/>
    </g>
    <g id="text_6">
     <!-- 30 -->
     <g transform="translate(202.631782 513.835976) scale(0.1 -0.1)">
      <defs>
       <path id="DejaVuSans-33" d="M 2597 2516 
Q 3050 2419 3304 2112 
Q 3559 1806 3559 1356 
Q 3559 666 3084 287 
Q 2609 -91 1734 -91 
Q 1441 -91 1130 -33 
Q 819 25 488 141 
L 488 750 
Q 750 597 1062 519 
Q 1375 441 1716 441 
Q 2309 441 2620 675 
Q 2931 909 2931 1356 
Q 2931 1769 2642 2001 
Q 2353 2234 1838 2234 
L 1294 2234 
L 1294 2753 
L 1863 2753 
Q 2328 2753 2575 2939 
Q 2822 3125 2822 3475 
Q 2822 3834 2567 4026 
Q 2313 4219 1838 4219 
Q 1578 4219 1281 4162 
Q 984 4106 628 3988 
L 628 4550 
Q 988 4650 1302 4700 
Q 1616 4750 1894 4750 
Q 2613 4750 3031 4423 
Q 3450 4097 3450 3541 
Q 3450 3153 3228 2886 
Q 3006 2619 2597 2516 
z
" transform="scale(0.015625)"/>
      </defs>
      <use xlink:href="#DejaVuSans-33"/>
      <use xlink:href="#DejaVuSans-30" transform="translate(63.623047 0)"/>
     </g>
    </g>
   </g>
   <g id="text_7">
    <!-- PC1 (11.8%) -->
    <g transform="translate(89.87187 456.166305) rotate(-326.957628) scale(0.1 -0.1)">
     <defs>
      <path id="DejaVuSans-50" d="M 1259 4147 
L 1259 2394 
L 2053 2394 
Q 2494 2394 2734 2622 
Q 2975 2850 2975 3272 
Q 2975 3691 2734 3919 
Q 2494 4147 2053 4147 
L 1259 4147 
z
M 628 4666 
L 2053 4666 
Q 2838 4666 3239 4311 
Q 3641 3956 3641 3272 
Q 3641 2581 3239 2228 
Q 2838 1875 2053 1875 
L 1259 1875 
L 1259 0 
L 628 0 
L 628 4666 
z
" transform="scale(0.015625)"/>
      <path id="DejaVuSans-43" d="M 4122 4306 
L 4122 3641 
Q 3803 3938 3442 4084 
Q 3081 4231 2675 4231 
Q 1875 4231 1450 3742 
Q 1025 3253 1025 2328 
Q 1025 1406 1450 917 
Q 1875 428 2675 428 
Q 3081 428 3442 575 
Q 3803 722 4122 1019 
L 4122 359 
Q 3791 134 3420 21 
Q 3050 -91 2638 -91 
Q 1578 -91 968 557 
Q 359 1206 359 2328 
Q 359 3453 968 4101 
Q 1578 4750 2638 4750 
Q 3056 4750 3426 4639 
Q 3797 4528 4122 4306 
z
" transform="scale(0.015625)"/>
      <path id="DejaVuSans-20" transform="scale(0.015625)"/>
      <path id="DejaVuSans-28" d="M 1984 4856 
Q 1566 4138 1362 3434 
Q 1159 2731 1159 2009 
Q 1159 1288 1364 580 
Q 1569 -128 1984 -844 
L 1484 -844 
Q 1016 -109 783 600 
Q 550 1309 550 2009 
Q 550 2706 781 3412 
Q 1013 4119 1484 4856 
L 1984 4856 
z
" transform="scale(0.015625)"/>
      <path id="DejaVuSans-2e" d="M 684 794 
L 1344 794 
L 1344 0 
L 684 0 
L 684 794 
z
" transform="scale(0.015625)"/>
      <path id="DejaVuSans-38" d="M 2034 2216 
Q 1584 2216 1326 1975 
Q 1069 1734 1069 1313 
Q 1069 891 1326 650 
Q 1584 409 2034 409 
Q 2484 409 2743 651 
Q 3003 894 3003 1313 
Q 3003 1734 2745 1975 
Q 2488 2216 2034 2216 
z
M 1403 2484 
Q 997 2584 770 2862 
Q 544 3141 544 3541 
Q 544 4100 942 4425 
Q 1341 4750 2034 4750 
Q 2731 4750 3128 4425 
Q 3525 4100 3525 3541 
Q 3525 3141 3298 2862 
Q 3072 2584 2669 2484 
Q 3125 2378 3379 2068 
Q 3634 1759 3634 1313 
Q 3634 634 3220 271 
Q 2806 -91 2034 -91 
Q 1263 -91 848 271 
Q 434 634 434 1313 
Q 434 1759 690 2068 
Q 947 2378 1403 2484 
z
M 1172 3481 
Q 1172 3119 1398 2916 
Q 1625 2713 2034 2713 
Q 2441 2713 2670 2916 
Q 2900 3119 2900 3481 
Q 2900 3844 2670 4047 
Q 2441 4250 2034 4250 
Q 1625 4250 1398 4047 
Q 1172 3844 1172 3481 
z
" transform="scale(0.015625)"/>
      <path id="DejaVuSans-25" d="M 4653 2053 
Q 4381 2053 4226 1822 
Q 4072 1591 4072 1178 
Q 4072 772 4226 539 
Q 4381 306 4653 306 
Q 4919 306 5073 539 
Q 5228 772 5228 1178 
Q 5228 1588 5073 1820 
Q 4919 2053 4653 2053 
z
M 4653 2450 
Q 5147 2450 5437 2106 
Q 5728 1763 5728 1178 
Q 5728 594 5436 251 
Q 5144 -91 4653 -91 
Q 4153 -91 3862 251 
Q 3572 594 3572 1178 
Q 3572 1766 3864 2108 
Q 4156 2450 4653 2450 
z
M 1428 4353 
Q 1159 4353 1004 4120 
Q 850 3888 850 3481 
Q 850 3069 1003 2837 
Q 1156 2606 1428 2606 
Q 1700 2606 1854 2837 
Q 2009 3069 2009 3481 
Q 2009 3884 1853 4118 
Q 1697 4353 1428 4353 
z
M 4250 4750 
L 4750 4750 
L 1831 -91 
L 1331 -91 
L 4250 4750 
z
M 1428 4750 
Q 1922 4750 2215 4408 
Q 2509 4066 2509 3481 
Q 2509 2891 2217 2550 
Q 1925 2209 1428 2209 
Q 931 2209 642 2551 
Q 353 2894 353 3481 
Q 353 4063 643 4406 
Q 934 4750 1428 4750 
z
" transform="scale(0.015625)"/>
      <path id="DejaVuSans-29" d="M 513 4856 
L 1013 4856 
Q 1481 4119 1714 3412 
Q 1947 2706 1947 2009 
Q 1947 1309 1714 600 
Q 1481 -109 1013 -844 
L 513 -844 
Q 928 -128 1133 580 
Q 1338 1288 1338 2009 
Q 1338 2731 1133 3434 
Q 928 4138 513 4856 
z
" transform="scale(0.015625)"/>
     </defs>
     <use xlink:href="#DejaVuSans-50"/>
     <use xlink:href="#DejaVuSans-43" transform="translate(60.302734 0)"/>
     <use xlink:href="#DejaVuSans-31" transform="translate(130.126953 0)"/>
     <use xlink:href="#DejaVuSans-20" transform="translate(193.75 0)"/>
     <use xlink:href="#DejaVuSans-28" transform="translate(225.537109 0)"/>
     <use xlink:href="#DejaVuSans-31" transform="translate(264.550781 0)"/>
     <use xlink:href="#DejaVuSans-31" transform="translate(328.173828 0)"/>
     <use xlink:href="#DejaVuSans-2e" transform="translate(391.796875 0)"/>
     <use xlink:href="#DejaVuSans-38" transform="translate(423.583984 0)"/>
     <use xlink:href="#DejaVuSans-25" transform="translate(487.207031 0)"/>
     <use xlink:href="#DejaVuSans-29" transform="translate(582.226562 0)"/>
    </g>
   </g>
  </g>
  <g id="axis3d_2">
   <g id="line2d_8">
    <path d="M 539.539421 416.916187 
L 245.283459 507.907181 
" style="fill: none; stroke: #000000; stroke-width: 0.8; stroke-linecap: square"/>
   </g>
   <g id="xtick_7">
    <g id="line2d_9">
     <path d="M 256.359012 502.850974 
L 261.49606 506.164142 
" style="fill: none; stroke: #000000; stroke-width: 0.8; stroke-linecap: square"/>
    </g>
    <g id="text_8">
     <!-- −20 -->
     <g transform="translate(256.102999 527.246615) scale(0.1 -0.1)">
      <use xlink:href="#DejaVuSans-2212"/>
      <use xlink:href="#DejaVuSans-32" transform="translate(83.789062 0)"/>
      <use xlink:href="#DejaVuSans-30" transform="translate(147.412109 0)"/>
     </g>
    </g>
   </g>
   <g id="xtick_8">
    <g id="line2d_10">
     <path d="M 320.261258 483.11328 
L 325.472907 486.335938 
" style="fill: none; stroke: #000000; stroke-width: 0.8; stroke-linecap: square"/>
    </g>
    <g id="text_9">
     <!-- 0 -->
     <g transform="translate(327.435021 507.215482) scale(0.1 -0.1)">
      <use xlink:href="#DejaVuSans-30"/>
     </g>
    </g>
   </g>
   <g id="xtick_9">
    <g id="line2d_11">
     <path d="M 382.431507 463.910554 
L 387.711844 467.046361 
" style="fill: none; stroke: #000000; stroke-width: 0.8; stroke-linecap: square"/>
    </g>
    <g id="text_10">
     <!-- 20 -->
     <g transform="translate(386.475743 487.728951) scale(0.1 -0.1)">
      <use xlink:href="#DejaVuSans-32"/>
      <use xlink:href="#DejaVuSans-30" transform="translate(63.623047 0)"/>
     </g>
    </g>
   </g>
   <g id="xtick_10">
    <g id="line2d_12">
     <path d="M 442.939232 445.221338 
L 448.282738 448.273758 
" style="fill: none; stroke: #000000; stroke-width: 0.8; stroke-linecap: square"/>
    </g>
    <g id="text_11">
     <!-- 40 -->
     <g transform="translate(447.028727 468.765111) scale(0.1 -0.1)">
      <defs>
       <path id="DejaVuSans-34" d="M 2419 4116 
L 825 1625 
L 2419 1625 
L 2419 4116 
z
M 2253 4666 
L 3047 4666 
L 3047 1625 
L 3713 1625 
L 3713 1100 
L 3047 1100 
L 3047 0 
L 2419 0 
L 2419 1100 
L 313 1100 
L 313 1709 
L 2253 4666 
z
" transform="scale(0.015625)"/>
      </defs>
      <use xlink:href="#DejaVuSans-34"/>
      <use xlink:href="#DejaVuSans-30" transform="translate(63.623047 0)"/>
     </g>
    </g>
   </g>
   <g id="xtick_11">
    <g id="line2d_13">
     <path d="M 501.850242 427.025304 
L 507.251757 429.997619 
" style="fill: none; stroke: #000000; stroke-width: 0.8; stroke-linecap: square"/>
    </g>
    <g id="text_12">
     <!-- 60 -->
     <g transform="translate(505.978984 450.303208) scale(0.1 -0.1)">
      <defs>
       <path id="DejaVuSans-36" d="M 2113 2584 
Q 1688 2584 1439 2293 
Q 1191 2003 1191 1497 
Q 1191 994 1439 701 
Q 1688 409 2113 409 
Q 2538 409 2786 701 
Q 3034 994 3034 1497 
Q 3034 2003 2786 2293 
Q 2538 2584 2113 2584 
z
M 3366 4563 
L 3366 3988 
Q 3128 4100 2886 4159 
Q 2644 4219 2406 4219 
Q 1781 4219 1451 3797 
Q 1122 3375 1075 2522 
Q 1259 2794 1537 2939 
Q 1816 3084 2150 3084 
Q 2853 3084 3261 2657 
Q 3669 2231 3669 1497 
Q 3669 778 3244 343 
Q 2819 -91 2113 -91 
Q 1303 -91 875 529 
Q 447 1150 447 2328 
Q 447 3434 972 4092 
Q 1497 4750 2381 4750 
Q 2619 4750 2861 4703 
Q 3103 4656 3366 4563 
z
" transform="scale(0.015625)"/>
      </defs>
      <use xlink:href="#DejaVuSans-36"/>
      <use xlink:href="#DejaVuSans-30" transform="translate(63.623047 0)"/>
     </g>
    </g>
   </g>
   <g id="text_13">
    <!-- PC2 (10.2%) -->
    <g transform="translate(387.211818 505.708628) rotate(-17.182862) scale(0.1 -0.1)">
     <use xlink:href="#DejaVuSans-50"/>
     <use xlink:href="#DejaVuSans-43" transform="translate(60.302734 0)"/>
     <use xlink:href="#DejaVuSans-32" transform="translate(130.126953 0)"/>
     <use xlink:href="#DejaVuSans-20" transform="translate(193.75 0)"/>
     <use xlink:href="#DejaVuSans-28" transform="translate(225.537109 0)"/>
     <use xlink:href="#DejaVuSans-31" transform="translate(264.550781 0)"/>
     <use xlink:href="#DejaVuSans-30" transform="translate(328.173828 0)"/>
     <use xlink:href="#DejaVuSans-2e" transform="translate(391.796875 0)"/>
     <use xlink:href="#DejaVuSans-32" transform="translate(423.583984 0)"/>
     <use xlink:href="#DejaVuSans-25" transform="translate(487.207031 0)"/>
     <use xlink:href="#DejaVuSans-29" transform="translate(582.226562 0)"/>
    </g>
   </g>
  </g>
  <g id="axis3d_3">
   <g id="line2d_14">
    <path d="M 539.539421 416.916187 
L 548.081106 165.915228 
" style="fill: none; stroke: #000000; stroke-width: 0.8; stroke-linecap: square"/>
   </g>
   <g id="xtick_12">
    <g id="line2d_15">
     <path d="M 538.426019 395.346122 
L 543.878104 398.23372 
" style="fill: none; stroke: #000000; stroke-width: 0.8; stroke-linecap: square"/>
    </g>
    <g id="text_14">
     <!-- −10 -->
     <g transform="translate(549.759988 405.342765) scale(0.1 -0.1)">
      <use xlink:href="#DejaVuSans-2212"/>
      <use xlink:href="#DejaVuSans-31" transform="translate(83.789062 0)"/>
      <use xlink:href="#DejaVuSans-30" transform="translate(147.412109 0)"/>
     </g>
    </g>
   </g>
   <g id="xtick_13">
    <g id="line2d_16">
     <path d="M 539.509977 363.254876 
L 544.988451 366.085176 
" style="fill: none; stroke: #000000; stroke-width: 0.8; stroke-linecap: square"/>
    </g>
    <g id="text_15">
     <!-- 0 -->
     <g transform="translate(558.313408 373.203928) scale(0.1 -0.1)">
      <use xlink:href="#DejaVuSans-30"/>
     </g>
    </g>
   </g>
   <g id="xtick_14">
    <g id="line2d_17">
     <path d="M 540.603509 330.880188 
L 546.108627 333.652059 
" style="fill: none; stroke: #000000; stroke-width: 0.8; stroke-linecap: square"/>
    </g>
    <g id="text_16">
     <!-- 10 -->
     <g transform="translate(556.324946 340.78071) scale(0.1 -0.1)">
      <use xlink:href="#DejaVuSans-31"/>
      <use xlink:href="#DejaVuSans-30" transform="translate(63.623047 0)"/>
     </g>
    </g>
   </g>
   <g id="xtick_15">
    <g id="line2d_18">
     <path d="M 541.706743 298.218284 
L 547.238762 300.930577 
" style="fill: none; stroke: #000000; stroke-width: 0.8; stroke-linecap: square"/>
    </g>
    <g id="text_17">
     <!-- 20 -->
     <g transform="translate(557.528335 308.069322) scale(0.1 -0.1)">
      <use xlink:href="#DejaVuSans-32"/>
      <use xlink:href="#DejaVuSans-30" transform="translate(63.623047 0)"/>
     </g>
    </g>
   </g>
   <g id="xtick_16">
    <g id="line2d_19">
     <path d="M 542.819807 265.265327 
L 548.37899 267.916864 
" style="fill: none; stroke: #000000; stroke-width: 0.8; stroke-linecap: square"/>
    </g>
    <g id="text_18">
     <!-- 30 -->
     <g transform="translate(558.742468 275.065903) scale(0.1 -0.1)">
      <use xlink:href="#DejaVuSans-33"/>
      <use xlink:href="#DejaVuSans-30" transform="translate(63.623047 0)"/>
     </g>
    </g>
   </g>
   <g id="xtick_17">
    <g id="line2d_20">
     <path d="M 543.942834 232.017408 
L 549.529448 234.60699 
" style="fill: none; stroke: #000000; stroke-width: 0.8; stroke-linecap: square"/>
    </g>
    <g id="text_19">
     <!-- 40 -->
     <g transform="translate(559.967488 241.766525) scale(0.1 -0.1)">
      <use xlink:href="#DejaVuSans-34"/>
      <use xlink:href="#DejaVuSans-30" transform="translate(63.623047 0)"/>
     </g>
    </g>
   </g>
   <g id="xtick_18">
    <g id="line2d_21">
     <path d="M 545.075959 198.470548 
L 550.690272 200.99695 
" style="fill: none; stroke: #000000; stroke-width: 0.8; stroke-linecap: square"/>
    </g>
    <g id="text_20">
     <!-- 50 -->
     <g transform="translate(561.203543 208.16719) scale(0.1 -0.1)">
      <defs>
       <path id="DejaVuSans-35" d="M 691 4666 
L 3169 4666 
L 3169 4134 
L 1269 4134 
L 1269 2991 
Q 1406 3038 1543 3061 
Q 1681 3084 1819 3084 
Q 2600 3084 3056 2656 
Q 3513 2228 3513 1497 
Q 3513 744 3044 326 
Q 2575 -91 1722 -91 
Q 1428 -91 1123 -41 
Q 819 9 494 109 
L 494 744 
Q 775 591 1075 516 
Q 1375 441 1709 441 
Q 2250 441 2565 725 
Q 2881 1009 2881 1497 
Q 2881 1984 2565 2268 
Q 2250 2553 1709 2553 
Q 1456 2553 1204 2497 
Q 953 2441 691 2322 
L 691 4666 
z
" transform="scale(0.015625)"/>
      </defs>
      <use xlink:href="#DejaVuSans-35"/>
      <use xlink:href="#DejaVuSans-30" transform="translate(63.623047 0)"/>
     </g>
    </g>
   </g>
   <g id="text_21">
    <!-- PC3 (7.5%) -->
    <g transform="translate(589.861692 324.428643) rotate(-88.050949) scale(0.1 -0.1)">
     <defs>
      <path id="DejaVuSans-37" d="M 525 4666 
L 3525 4666 
L 3525 4397 
L 1831 0 
L 1172 0 
L 2766 4134 
L 525 4134 
L 525 4666 
z
" transform="scale(0.015625)"/>
     </defs>
     <use xlink:href="#DejaVuSans-50"/>
     <use xlink:href="#DejaVuSans-43" transform="translate(60.302734 0)"/>
     <use xlink:href="#DejaVuSans-33" transform="translate(130.126953 0)"/>
     <use xlink:href="#DejaVuSans-20" transform="translate(193.75 0)"/>
     <use xlink:href="#DejaVuSans-28" transform="translate(225.537109 0)"/>
     <use xlink:href="#DejaVuSans-37" transform="translate(264.550781 0)"/>
     <use xlink:href="#DejaVuSans-2e" transform="translate(328.173828 0)"/>
     <use xlink:href="#DejaVuSans-35" transform="translate(359.960938 0)"/>
     <use xlink:href="#DejaVuSans-25" transform="translate(423.583984 0)"/>
     <use xlink:href="#DejaVuSans-29" transform="translate(518.603516 0)"/>
    </g>
   </g>
  </g>
  <g id="axes_1">
   <g id="Path3DCollection_1">
    <path d="M 455.420809 335.525574 
L 451.237509 343.892175 
L 459.604109 343.892175 
z
" clip-path="url(#p2a2901b83b)" style="fill: #252525"/>
    <path d="M 448.363834 336.264112 
L 444.180534 344.630712 
L 452.547134 344.630712 
z
" clip-path="url(#p2a2901b83b)" style="fill: #252525"/>
    <path d="M 388.223863 337.614826 
L 384.040562 345.981426 
L 392.407163 345.981426 
z
" clip-path="url(#p2a2901b83b)" style="fill: #252525"/>
    <path d="M 377.698015 338.176115 
L 373.514715 346.542715 
L 381.881315 346.542715 
z
" clip-path="url(#p2a2901b83b)" style="fill: #252525"/>
   </g>
   <g id="Path3DCollection_2">
    <defs>
     <path id="C0_0_2b5dee8858" d="M -1.394433 4.1833 
L 1.394433 4.1833 
L 1.394433 1.394433 
L 4.1833 1.394433 
L 4.1833 -1.394433 
L 1.394433 -1.394433 
L 1.394433 -4.1833 
L -1.394433 -4.1833 
L -1.394433 -1.394433 
L -4.1833 -1.394433 
L -4.1833 1.394433 
L -1.394433 1.394433 
z
"/>
    </defs>
    <g clip-path="url(#p2a2901b83b)">
     <use xlink:href="#C0_0_2b5dee8858" x="207.050492" y="344.418314" style="fill: #9e9ac8"/>
    </g>
    <g clip-path="url(#p2a2901b83b)">
     <use xlink:href="#C0_0_2b5dee8858" x="206.264332" y="345.983776" style="fill: #9e9ac8"/>
    </g>
    <g clip-path="url(#p2a2901b83b)">
     <use xlink:href="#C0_0_2b5dee8858" x="212.826524" y="350.940639" style="fill: #9e9ac8"/>
    </g>
    <g clip-path="url(#p2a2901b83b)">
     <use xlink:href="#C0_0_2b5dee8858" x="213.408784" y="351.404215" style="fill: #9e9ac8"/>
    </g>
   </g>
   <g id="Path3DCollection_3">
    <defs>
     <path id="C1_0_6954351cb2" d="M -0 5.91608 
L 5.91608 -0 
L 0 -5.91608 
L -5.91608 -0 
z
"/>
    </defs>
    <g clip-path="url(#p2a2901b83b)">
     <use xlink:href="#C1_0_6954351cb2" x="120.47596" y="350.431581" style="fill: #fd8d3c"/>
    </g>
    <g clip-path="url(#p2a2901b83b)">
     <use xlink:href="#C1_0_6954351cb2" x="122.630925" y="351.217399" style="fill: #fd8d3c"/>
    </g>
    <g clip-path="url(#p2a2901b83b)">
     <use xlink:href="#C1_0_6954351cb2" x="146.382956" y="351.557959" style="fill: #fd8d3c"/>
    </g>
    <g clip-path="url(#p2a2901b83b)">
     <use xlink:href="#C1_0_6954351cb2" x="159.110379" y="361.744627" style="fill: #fd8d3c"/>
    </g>
    <g clip-path="url(#p2a2901b83b)">
     <use xlink:href="#C1_0_6954351cb2" x="158.607136" y="360.365565" style="fill: #fd8d3c"/>
    </g>
    <g clip-path="url(#p2a2901b83b)">
     <use xlink:href="#C1_0_6954351cb2" x="147.905595" y="352.520647" style="fill: #fd8d3c"/>
    </g>
    <g clip-path="url(#p2a2901b83b)">
     <use xlink:href="#C1_0_6954351cb2" x="165.280206" y="360.516859" style="fill: #fd8d3c"/>
    </g>
    <g clip-path="url(#p2a2901b83b)">
     <use xlink:href="#C1_0_6954351cb2" x="165.750827" y="361.039673" style="fill: #fd8d3c"/>
    </g>
    <g clip-path="url(#p2a2901b83b)">
     <use xlink:href="#C1_0_6954351cb2" x="160.856056" y="353.060186" style="fill: #fd8d3c"/>
    </g>
    <g clip-path="url(#p2a2901b83b)">
     <use xlink:href="#C1_0_6954351cb2" x="160.9828" y="354.739451" style="fill: #fd8d3c"/>
    </g>
    <g clip-path="url(#p2a2901b83b)">
     <use xlink:href="#C1_0_6954351cb2" x="164.944581" y="345.087632" style="fill: #fd8d3c"/>
    </g>
    <g clip-path="url(#p2a2901b83b)">
     <use xlink:href="#C1_0_6954351cb2" x="166.120836" y="346.070766" style="fill: #fd8d3c"/>
    </g>
    <g clip-path="url(#p2a2901b83b)">
     <use xlink:href="#C1_0_6954351cb2" x="169.04046" y="332.268957" style="fill: #fd8d3c"/>
    </g>
    <g clip-path="url(#p2a2901b83b)">
     <use xlink:href="#C1_0_6954351cb2" x="169.572244" y="333.68384" style="fill: #fd8d3c"/>
    </g>
    <g clip-path="url(#p2a2901b83b)">
     <use xlink:href="#C1_0_6954351cb2" x="202.004853" y="357.064859" style="fill: #fd8d3c"/>
    </g>
    <g clip-path="url(#p2a2901b83b)">
     <use xlink:href="#C1_0_6954351cb2" x="200.838207" y="357.062476" style="fill: #fd8d3c"/>
    </g>
    <g clip-path="url(#p2a2901b83b)">
     <use xlink:href="#C1_0_6954351cb2" x="175.9577" y="345.368657" style="fill: #fd8d3c"/>
    </g>
    <g clip-path="url(#p2a2901b83b)">
     <use xlink:href="#C1_0_6954351cb2" x="176.752115" y="346.948427" style="fill: #fd8d3c"/>
    </g>
    <g clip-path="url(#p2a2901b83b)">
     <use xlink:href="#C1_0_6954351cb2" x="195.684297" y="354.92932" style="fill: #fd8d3c"/>
    </g>
    <g clip-path="url(#p2a2901b83b)">
     <use xlink:href="#C1_0_6954351cb2" x="196.534294" y="354.888695" style="fill: #fd8d3c"/>
    </g>
    <g clip-path="url(#p2a2901b83b)">
     <use xlink:href="#C1_0_6954351cb2" x="184.183739" y="342.85029" style="fill: #fd8d3c"/>
    </g>
    <g clip-path="url(#p2a2901b83b)">
     <use xlink:href="#C1_0_6954351cb2" x="184.781521" y="343.281154" style="fill: #fd8d3c"/>
    </g>
    <g clip-path="url(#p2a2901b83b)">
     <use xlink:href="#C1_0_6954351cb2" x="202.33051" y="360.739046" style="fill: #fd8d3c"/>
    </g>
    <g clip-path="url(#p2a2901b83b)">
     <use xlink:href="#C1_0_6954351cb2" x="202.708814" y="361.90259" style="fill: #fd8d3c"/>
    </g>
    <g clip-path="url(#p2a2901b83b)">
     <use xlink:href="#C1_0_6954351cb2" x="200.054902" y="314.75282" style="fill: #fd8d3c"/>
    </g>
    <g clip-path="url(#p2a2901b83b)">
     <use xlink:href="#C1_0_6954351cb2" x="200.042485" y="312.116397" style="fill: #fd8d3c"/>
    </g>
    <g clip-path="url(#p2a2901b83b)">
     <use xlink:href="#C1_0_6954351cb2" x="187.576239" y="340.027552" style="fill: #fd8d3c"/>
    </g>
    <g clip-path="url(#p2a2901b83b)">
     <use xlink:href="#C1_0_6954351cb2" x="188.50269" y="341.205562" style="fill: #fd8d3c"/>
    </g>
   </g>
   <g id="legend_1">
    <g id="patch_6">
     <path d="M 579.688 117.946875 
L 693.067687 117.946875 
Q 695.067687 117.946875 695.067687 115.946875 
L 695.067687 14.2 
Q 695.067687 12.2 693.067687 12.2 
L 579.688 12.2 
Q 577.688 12.2 577.688 14.2 
L 577.688 115.946875 
Q 577.688 117.946875 579.688 117.946875 
z
" style="fill: #ffffff; opacity: 0.8; stroke: #cccccc; stroke-linejoin: miter"/>
    </g>
    <g id="text_22">
     <!-- Supergroup -->
     <g transform="translate(607.296594 23.798437) scale(0.1 -0.1)">
      <defs>
       <path id="DejaVuSans-53" d="M 3425 4513 
L 3425 3897 
Q 3066 4069 2747 4153 
Q 2428 4238 2131 4238 
Q 1616 4238 1336 4038 
Q 1056 3838 1056 3469 
Q 1056 3159 1242 3001 
Q 1428 2844 1947 2747 
L 2328 2669 
Q 3034 2534 3370 2195 
Q 3706 1856 3706 1288 
Q 3706 609 3251 259 
Q 2797 -91 1919 -91 
Q 1588 -91 1214 -16 
Q 841 59 441 206 
L 441 856 
Q 825 641 1194 531 
Q 1563 422 1919 422 
Q 2459 422 2753 634 
Q 3047 847 3047 1241 
Q 3047 1584 2836 1778 
Q 2625 1972 2144 2069 
L 1759 2144 
Q 1053 2284 737 2584 
Q 422 2884 422 3419 
Q 422 4038 858 4394 
Q 1294 4750 2059 4750 
Q 2388 4750 2728 4690 
Q 3069 4631 3425 4513 
z
" transform="scale(0.015625)"/>
       <path id="DejaVuSans-75" d="M 544 1381 
L 544 3500 
L 1119 3500 
L 1119 1403 
Q 1119 906 1312 657 
Q 1506 409 1894 409 
Q 2359 409 2629 706 
Q 2900 1003 2900 1516 
L 2900 3500 
L 3475 3500 
L 3475 0 
L 2900 0 
L 2900 538 
Q 2691 219 2414 64 
Q 2138 -91 1772 -91 
Q 1169 -91 856 284 
Q 544 659 544 1381 
z
M 1991 3584 
L 1991 3584 
z
" transform="scale(0.015625)"/>
       <path id="DejaVuSans-70" d="M 1159 525 
L 1159 -1331 
L 581 -1331 
L 581 3500 
L 1159 3500 
L 1159 2969 
Q 1341 3281 1617 3432 
Q 1894 3584 2278 3584 
Q 2916 3584 3314 3078 
Q 3713 2572 3713 1747 
Q 3713 922 3314 415 
Q 2916 -91 2278 -91 
Q 1894 -91 1617 61 
Q 1341 213 1159 525 
z
M 3116 1747 
Q 3116 2381 2855 2742 
Q 2594 3103 2138 3103 
Q 1681 3103 1420 2742 
Q 1159 2381 1159 1747 
Q 1159 1113 1420 752 
Q 1681 391 2138 391 
Q 2594 391 2855 752 
Q 3116 1113 3116 1747 
z
" transform="scale(0.015625)"/>
       <path id="DejaVuSans-65" d="M 3597 1894 
L 3597 1613 
L 953 1613 
Q 991 1019 1311 708 
Q 1631 397 2203 397 
Q 2534 397 2845 478 
Q 3156 559 3463 722 
L 3463 178 
Q 3153 47 2828 -22 
Q 2503 -91 2169 -91 
Q 1331 -91 842 396 
Q 353 884 353 1716 
Q 353 2575 817 3079 
Q 1281 3584 2069 3584 
Q 2775 3584 3186 3129 
Q 3597 2675 3597 1894 
z
M 3022 2063 
Q 3016 2534 2758 2815 
Q 2500 3097 2075 3097 
Q 1594 3097 1305 2825 
Q 1016 2553 972 2059 
L 3022 2063 
z
" transform="scale(0.015625)"/>
       <path id="DejaVuSans-72" d="M 2631 2963 
Q 2534 3019 2420 3045 
Q 2306 3072 2169 3072 
Q 1681 3072 1420 2755 
Q 1159 2438 1159 1844 
L 1159 0 
L 581 0 
L 581 3500 
L 1159 3500 
L 1159 2956 
Q 1341 3275 1631 3429 
Q 1922 3584 2338 3584 
Q 2397 3584 2469 3576 
Q 2541 3569 2628 3553 
L 2631 2963 
z
" transform="scale(0.015625)"/>
       <path id="DejaVuSans-67" d="M 2906 1791 
Q 2906 2416 2648 2759 
Q 2391 3103 1925 3103 
Q 1463 3103 1205 2759 
Q 947 2416 947 1791 
Q 947 1169 1205 825 
Q 1463 481 1925 481 
Q 2391 481 2648 825 
Q 2906 1169 2906 1791 
z
M 3481 434 
Q 3481 -459 3084 -895 
Q 2688 -1331 1869 -1331 
Q 1566 -1331 1297 -1286 
Q 1028 -1241 775 -1147 
L 775 -588 
Q 1028 -725 1275 -790 
Q 1522 -856 1778 -856 
Q 2344 -856 2625 -561 
Q 2906 -266 2906 331 
L 2906 616 
Q 2728 306 2450 153 
Q 2172 0 1784 0 
Q 1141 0 747 490 
Q 353 981 353 1791 
Q 353 2603 747 3093 
Q 1141 3584 1784 3584 
Q 2172 3584 2450 3431 
Q 2728 3278 2906 2969 
L 2906 3500 
L 3481 3500 
L 3481 434 
z
" transform="scale(0.015625)"/>
       <path id="DejaVuSans-6f" d="M 1959 3097 
Q 1497 3097 1228 2736 
Q 959 2375 959 1747 
Q 959 1119 1226 758 
Q 1494 397 1959 397 
Q 2419 397 2687 759 
Q 2956 1122 2956 1747 
Q 2956 2369 2687 2733 
Q 2419 3097 1959 3097 
z
M 1959 3584 
Q 2709 3584 3137 3096 
Q 3566 2609 3566 1747 
Q 3566 888 3137 398 
Q 2709 -91 1959 -91 
Q 1206 -91 779 398 
Q 353 888 353 1747 
Q 353 2609 779 3096 
Q 1206 3584 1959 3584 
z
" transform="scale(0.015625)"/>
      </defs>
      <use xlink:href="#DejaVuSans-53"/>
      <use xlink:href="#DejaVuSans-75" transform="translate(63.476562 0)"/>
      <use xlink:href="#DejaVuSans-70" transform="translate(126.855469 0)"/>
      <use xlink:href="#DejaVuSans-65" transform="translate(190.332031 0)"/>
      <use xlink:href="#DejaVuSans-72" transform="translate(251.855469 0)"/>
      <use xlink:href="#DejaVuSans-67" transform="translate(291.21875 0)"/>
      <use xlink:href="#DejaVuSans-72" transform="translate(354.695312 0)"/>
      <use xlink:href="#DejaVuSans-6f" transform="translate(393.558594 0)"/>
      <use xlink:href="#DejaVuSans-75" transform="translate(454.740234 0)"/>
      <use xlink:href="#DejaVuSans-70" transform="translate(518.119141 0)"/>
     </g>
    </g>
    <g id="Path3DCollection_4">
     <path d="M 591.688 40.034863 
C 592.797424 40.034863 593.861559 39.594084 594.64604 38.809602 
C 595.430521 38.025121 595.8713 36.960987 595.8713 35.851562 
C 595.8713 34.742138 595.430521 33.678004 594.64604 32.893523 
C 593.861559 32.109041 592.797424 31.668262 591.688 31.668262 
C 590.578576 31.668262 589.514441 32.109041 588.72996 32.893523 
C 587.945479 33.678004 587.5047 34.742138 587.5047 35.851562 
C 587.5047 36.960987 587.945479 38.025121 588.72996 38.809602 
C 589.514441 39.594084 590.578576 40.034863 591.688 40.034863 
z
" style="fill: #3182bd"/>
    </g>
    <g id="text_23">
     <!-- BUD -->
     <g transform="translate(609.688 38.476562) scale(0.1 -0.1)">
      <defs>
       <path id="DejaVuSans-42" d="M 1259 2228 
L 1259 519 
L 2272 519 
Q 2781 519 3026 730 
Q 3272 941 3272 1375 
Q 3272 1813 3026 2020 
Q 2781 2228 2272 2228 
L 1259 2228 
z
M 1259 4147 
L 1259 2741 
L 2194 2741 
Q 2656 2741 2882 2914 
Q 3109 3088 3109 3444 
Q 3109 3797 2882 3972 
Q 2656 4147 2194 4147 
L 1259 4147 
z
M 628 4666 
L 2241 4666 
Q 2963 4666 3353 4366 
Q 3744 4066 3744 3513 
Q 3744 3084 3544 2831 
Q 3344 2578 2956 2516 
Q 3422 2416 3680 2098 
Q 3938 1781 3938 1306 
Q 3938 681 3513 340 
Q 3088 0 2303 0 
L 628 0 
L 628 4666 
z
" transform="scale(0.015625)"/>
       <path id="DejaVuSans-55" d="M 556 4666 
L 1191 4666 
L 1191 1831 
Q 1191 1081 1462 751 
Q 1734 422 2344 422 
Q 2950 422 3222 751 
Q 3494 1081 3494 1831 
L 3494 4666 
L 4128 4666 
L 4128 1753 
Q 4128 841 3676 375 
Q 3225 -91 2344 -91 
Q 1459 -91 1007 375 
Q 556 841 556 1753 
L 556 4666 
z
" transform="scale(0.015625)"/>
       <path id="DejaVuSans-44" d="M 1259 4147 
L 1259 519 
L 2022 519 
Q 2988 519 3436 956 
Q 3884 1394 3884 2338 
Q 3884 3275 3436 3711 
Q 2988 4147 2022 4147 
L 1259 4147 
z
M 628 4666 
L 1925 4666 
Q 3281 4666 3915 4102 
Q 4550 3538 4550 2338 
Q 4550 1131 3912 565 
Q 3275 0 1925 0 
L 628 0 
L 628 4666 
z
" transform="scale(0.015625)"/>
      </defs>
      <use xlink:href="#DejaVuSans-42"/>
      <use xlink:href="#DejaVuSans-55" transform="translate(68.603516 0)"/>
      <use xlink:href="#DejaVuSans-44" transform="translate(141.796875 0)"/>
     </g>
    </g>
    <g id="Path3DCollection_5">
     <path d="M 587.5047 54.712988 
L 595.8713 54.712988 
L 595.8713 46.346387 
L 587.5047 46.346387 
z
" style="fill: #31a354"/>
    </g>
    <g id="text_24">
     <!-- INFECTED -->
     <g transform="translate(609.688 53.154688) scale(0.1 -0.1)">
      <defs>
       <path id="DejaVuSans-49" d="M 628 4666 
L 1259 4666 
L 1259 0 
L 628 0 
L 628 4666 
z
" transform="scale(0.015625)"/>
       <path id="DejaVuSans-4e" d="M 628 4666 
L 1478 4666 
L 3547 763 
L 3547 4666 
L 4159 4666 
L 4159 0 
L 3309 0 
L 1241 3903 
L 1241 0 
L 628 0 
L 628 4666 
z
" transform="scale(0.015625)"/>
       <path id="DejaVuSans-46" d="M 628 4666 
L 3309 4666 
L 3309 4134 
L 1259 4134 
L 1259 2759 
L 3109 2759 
L 3109 2228 
L 1259 2228 
L 1259 0 
L 628 0 
L 628 4666 
z
" transform="scale(0.015625)"/>
       <path id="DejaVuSans-45" d="M 628 4666 
L 3578 4666 
L 3578 4134 
L 1259 4134 
L 1259 2753 
L 3481 2753 
L 3481 2222 
L 1259 2222 
L 1259 531 
L 3634 531 
L 3634 0 
L 628 0 
L 628 4666 
z
" transform="scale(0.015625)"/>
       <path id="DejaVuSans-54" d="M -19 4666 
L 3928 4666 
L 3928 4134 
L 2272 4134 
L 2272 0 
L 1638 0 
L 1638 4134 
L -19 4134 
L -19 4666 
z
" transform="scale(0.015625)"/>
      </defs>
      <use xlink:href="#DejaVuSans-49"/>
      <use xlink:href="#DejaVuSans-4e" transform="translate(29.492188 0)"/>
      <use xlink:href="#DejaVuSans-46" transform="translate(104.296875 0)"/>
      <use xlink:href="#DejaVuSans-45" transform="translate(161.816406 0)"/>
      <use xlink:href="#DejaVuSans-43" transform="translate(225 0)"/>
      <use xlink:href="#DejaVuSans-54" transform="translate(294.824219 0)"/>
      <use xlink:href="#DejaVuSans-45" transform="translate(355.908203 0)"/>
      <use xlink:href="#DejaVuSans-44" transform="translate(419.091797 0)"/>
     </g>
    </g>
    <g id="Path3DCollection_6">
     <path d="M 591.688 71.123892 
L 597.60408 65.207812 
L 591.688 59.291733 
L 585.77192 65.207812 
z
" style="fill: #fd8d3c"/>
    </g>
    <g id="text_25">
     <!-- UNINFECTED -->
     <g transform="translate(609.688 67.832812) scale(0.1 -0.1)">
      <use xlink:href="#DejaVuSans-55"/>
      <use xlink:href="#DejaVuSans-4e" transform="translate(73.193359 0)"/>
      <use xlink:href="#DejaVuSans-49" transform="translate(147.998047 0)"/>
      <use xlink:href="#DejaVuSans-4e" transform="translate(177.490234 0)"/>
      <use xlink:href="#DejaVuSans-46" transform="translate(252.294922 0)"/>
      <use xlink:href="#DejaVuSans-45" transform="translate(309.814453 0)"/>
      <use xlink:href="#DejaVuSans-43" transform="translate(372.998047 0)"/>
      <use xlink:href="#DejaVuSans-54" transform="translate(442.822266 0)"/>
      <use xlink:href="#DejaVuSans-45" transform="translate(503.90625 0)"/>
      <use xlink:href="#DejaVuSans-44" transform="translate(567.089844 0)"/>
     </g>
    </g>
    <g id="Path3DCollection_7">
     <path d="M 589.59635 84.069238 
L 591.688 81.977588 
L 593.77965 84.069238 
L 595.8713 81.977588 
L 593.77965 79.885938 
L 595.8713 77.794287 
L 593.77965 75.702637 
L 591.688 77.794287 
L 589.59635 75.702637 
L 587.5047 77.794287 
L 589.59635 79.885938 
L 587.5047 81.977588 
z
" style="fill: #8c6d31"/>
    </g>
    <g id="text_26">
     <!-- nonhostTET -->
     <g transform="translate(609.688 82.510938) scale(0.1 -0.1)">
      <defs>
       <path id="DejaVuSans-6e" d="M 3513 2113 
L 3513 0 
L 2938 0 
L 2938 2094 
Q 2938 2591 2744 2837 
Q 2550 3084 2163 3084 
Q 1697 3084 1428 2787 
Q 1159 2491 1159 1978 
L 1159 0 
L 581 0 
L 581 3500 
L 1159 3500 
L 1159 2956 
Q 1366 3272 1645 3428 
Q 1925 3584 2291 3584 
Q 2894 3584 3203 3211 
Q 3513 2838 3513 2113 
z
" transform="scale(0.015625)"/>
       <path id="DejaVuSans-68" d="M 3513 2113 
L 3513 0 
L 2938 0 
L 2938 2094 
Q 2938 2591 2744 2837 
Q 2550 3084 2163 3084 
Q 1697 3084 1428 2787 
Q 1159 2491 1159 1978 
L 1159 0 
L 581 0 
L 581 4863 
L 1159 4863 
L 1159 2956 
Q 1366 3272 1645 3428 
Q 1925 3584 2291 3584 
Q 2894 3584 3203 3211 
Q 3513 2838 3513 2113 
z
" transform="scale(0.015625)"/>
       <path id="DejaVuSans-73" d="M 2834 3397 
L 2834 2853 
Q 2591 2978 2328 3040 
Q 2066 3103 1784 3103 
Q 1356 3103 1142 2972 
Q 928 2841 928 2578 
Q 928 2378 1081 2264 
Q 1234 2150 1697 2047 
L 1894 2003 
Q 2506 1872 2764 1633 
Q 3022 1394 3022 966 
Q 3022 478 2636 193 
Q 2250 -91 1575 -91 
Q 1294 -91 989 -36 
Q 684 19 347 128 
L 347 722 
Q 666 556 975 473 
Q 1284 391 1588 391 
Q 1994 391 2212 530 
Q 2431 669 2431 922 
Q 2431 1156 2273 1281 
Q 2116 1406 1581 1522 
L 1381 1569 
Q 847 1681 609 1914 
Q 372 2147 372 2553 
Q 372 3047 722 3315 
Q 1072 3584 1716 3584 
Q 2034 3584 2315 3537 
Q 2597 3491 2834 3397 
z
" transform="scale(0.015625)"/>
       <path id="DejaVuSans-74" d="M 1172 4494 
L 1172 3500 
L 2356 3500 
L 2356 3053 
L 1172 3053 
L 1172 1153 
Q 1172 725 1289 603 
Q 1406 481 1766 481 
L 2356 481 
L 2356 0 
L 1766 0 
Q 1100 0 847 248 
Q 594 497 594 1153 
L 594 3053 
L 172 3053 
L 172 3500 
L 594 3500 
L 594 4494 
L 1172 4494 
z
" transform="scale(0.015625)"/>
      </defs>
      <use xlink:href="#DejaVuSans-6e"/>
      <use xlink:href="#DejaVuSans-6f" transform="translate(63.378906 0)"/>
      <use xlink:href="#DejaVuSans-6e" transform="translate(124.560547 0)"/>
      <use xlink:href="#DejaVuSans-68" transform="translate(187.939453 0)"/>
      <use xlink:href="#DejaVuSans-6f" transform="translate(251.318359 0)"/>
      <use xlink:href="#DejaVuSans-73" transform="translate(312.5 0)"/>
      <use xlink:href="#DejaVuSans-74" transform="translate(364.599609 0)"/>
      <use xlink:href="#DejaVuSans-54" transform="translate(403.808594 0)"/>
      <use xlink:href="#DejaVuSans-45" transform="translate(464.892578 0)"/>
      <use xlink:href="#DejaVuSans-54" transform="translate(528.076172 0)"/>
     </g>
    </g>
    <g id="Path3DCollection_8">
     <path d="M 590.293567 98.747363 
L 593.082433 98.747363 
L 593.082433 95.958496 
L 595.8713 95.958496 
L 595.8713 93.169629 
L 593.082433 93.169629 
L 593.082433 90.380762 
L 590.293567 90.380762 
L 590.293567 93.169629 
L 587.5047 93.169629 
L 587.5047 95.958496 
L 590.293567 95.958496 
z
" style="fill: #9e9ac8"/>
    </g>
    <g id="text_27">
     <!-- UNINFRAFFSPEC -->
     <g transform="translate(609.688 97.189062) scale(0.1 -0.1)">
      <defs>
       <path id="DejaVuSans-52" d="M 2841 2188 
Q 3044 2119 3236 1894 
Q 3428 1669 3622 1275 
L 4263 0 
L 3584 0 
L 2988 1197 
Q 2756 1666 2539 1819 
Q 2322 1972 1947 1972 
L 1259 1972 
L 1259 0 
L 628 0 
L 628 4666 
L 2053 4666 
Q 2853 4666 3247 4331 
Q 3641 3997 3641 3322 
Q 3641 2881 3436 2590 
Q 3231 2300 2841 2188 
z
M 1259 4147 
L 1259 2491 
L 2053 2491 
Q 2509 2491 2742 2702 
Q 2975 2913 2975 3322 
Q 2975 3731 2742 3939 
Q 2509 4147 2053 4147 
L 1259 4147 
z
" transform="scale(0.015625)"/>
       <path id="DejaVuSans-41" d="M 2188 4044 
L 1331 1722 
L 3047 1722 
L 2188 4044 
z
M 1831 4666 
L 2547 4666 
L 4325 0 
L 3669 0 
L 3244 1197 
L 1141 1197 
L 716 0 
L 50 0 
L 1831 4666 
z
" transform="scale(0.015625)"/>
      </defs>
      <use xlink:href="#DejaVuSans-55"/>
      <use xlink:href="#DejaVuSans-4e" transform="translate(73.193359 0)"/>
      <use xlink:href="#DejaVuSans-49" transform="translate(147.998047 0)"/>
      <use xlink:href="#DejaVuSans-4e" transform="translate(177.490234 0)"/>
      <use xlink:href="#DejaVuSans-46" transform="translate(252.294922 0)"/>
      <use xlink:href="#DejaVuSans-52" transform="translate(309.814453 0)"/>
      <use xlink:href="#DejaVuSans-41" transform="translate(375.296875 0)"/>
      <use xlink:href="#DejaVuSans-46" transform="translate(443.705078 0)"/>
      <use xlink:href="#DejaVuSans-46" transform="translate(501.224609 0)"/>
      <use xlink:href="#DejaVuSans-53" transform="translate(556.994141 0)"/>
      <use xlink:href="#DejaVuSans-50" transform="translate(620.470703 0)"/>
      <use xlink:href="#DejaVuSans-45" transform="translate(680.773438 0)"/>
      <use xlink:href="#DejaVuSans-43" transform="translate(743.957031 0)"/>
     </g>
    </g>
    <g id="Path3DCollection_9">
     <path d="M 591.688 105.058887 
L 587.5047 113.425488 
L 595.8713 113.425488 
z
" style="fill: #252525"/>
    </g>
    <g id="text_28">
     <!-- RAFFSEED -->
     <g transform="translate(609.688 111.867188) scale(0.1 -0.1)">
      <use xlink:href="#DejaVuSans-52"/>
      <use xlink:href="#DejaVuSans-41" transform="translate(65.482422 0)"/>
      <use xlink:href="#DejaVuSans-46" transform="translate(133.890625 0)"/>
      <use xlink:href="#DejaVuSans-46" transform="translate(191.410156 0)"/>
      <use xlink:href="#DejaVuSans-53" transform="translate(247.179688 0)"/>
      <use xlink:href="#DejaVuSans-45" transform="translate(310.65625 0)"/>
      <use xlink:href="#DejaVuSans-45" transform="translate(373.839844 0)"/>
      <use xlink:href="#DejaVuSans-44" transform="translate(437.023438 0)"/>
     </g>
    </g>
   </g>
   <g id="Path3DCollection_10">
    <defs>
     <path id="C2_0_0d215a2daa" d="M -4.1833 4.1833 
L 4.1833 4.1833 
L 4.1833 -4.1833 
L -4.1833 -4.1833 
z
"/>
    </defs>
    <g clip-path="url(#p2a2901b83b)">
     <use xlink:href="#C2_0_0d215a2daa" x="161.688083" y="364.010985" style="fill: #31a354"/>
    </g>
    <g clip-path="url(#p2a2901b83b)">
     <use xlink:href="#C2_0_0d215a2daa" x="160.902879" y="362.612464" style="fill: #31a354"/>
    </g>
    <g clip-path="url(#p2a2901b83b)">
     <use xlink:href="#C2_0_0d215a2daa" x="168.862065" y="361.237463" style="fill: #31a354"/>
    </g>
    <g clip-path="url(#p2a2901b83b)">
     <use xlink:href="#C2_0_0d215a2daa" x="170.162459" y="361.959334" style="fill: #31a354"/>
    </g>
    <g clip-path="url(#p2a2901b83b)">
     <use xlink:href="#C2_0_0d215a2daa" x="163.523213" y="355.107316" style="fill: #31a354"/>
    </g>
    <g clip-path="url(#p2a2901b83b)">
     <use xlink:href="#C2_0_0d215a2daa" x="167.240087" y="350.750432" style="fill: #31a354"/>
    </g>
    <g clip-path="url(#p2a2901b83b)">
     <use xlink:href="#C2_0_0d215a2daa" x="164.62616" y="353.675197" style="fill: #31a354"/>
    </g>
    <g clip-path="url(#p2a2901b83b)">
     <use xlink:href="#C2_0_0d215a2daa" x="167.144171" y="351.336937" style="fill: #31a354"/>
    </g>
    <g clip-path="url(#p2a2901b83b)">
     <use xlink:href="#C2_0_0d215a2daa" x="177.951377" y="359.892667" style="fill: #31a354"/>
    </g>
    <g clip-path="url(#p2a2901b83b)">
     <use xlink:href="#C2_0_0d215a2daa" x="179.714632" y="359.782846" style="fill: #31a354"/>
    </g>
    <g clip-path="url(#p2a2901b83b)">
     <use xlink:href="#C2_0_0d215a2daa" x="170.585832" y="353.894196" style="fill: #31a354"/>
    </g>
    <g clip-path="url(#p2a2901b83b)">
     <use xlink:href="#C2_0_0d215a2daa" x="172.84787" y="354.105166" style="fill: #31a354"/>
    </g>
    <g clip-path="url(#p2a2901b83b)">
     <use xlink:href="#C2_0_0d215a2daa" x="198.532246" y="360.461563" style="fill: #31a354"/>
    </g>
    <g clip-path="url(#p2a2901b83b)">
     <use xlink:href="#C2_0_0d215a2daa" x="199.984237" y="361.157757" style="fill: #31a354"/>
    </g>
    <g clip-path="url(#p2a2901b83b)">
     <use xlink:href="#C2_0_0d215a2daa" x="203.105647" y="359.771816" style="fill: #31a354"/>
    </g>
    <g clip-path="url(#p2a2901b83b)">
     <use xlink:href="#C2_0_0d215a2daa" x="200.040007" y="360.805778" style="fill: #31a354"/>
    </g>
    <g clip-path="url(#p2a2901b83b)">
     <use xlink:href="#C2_0_0d215a2daa" x="201.9405" y="361.136882" style="fill: #31a354"/>
    </g>
    <g clip-path="url(#p2a2901b83b)">
     <use xlink:href="#C2_0_0d215a2daa" x="203.828532" y="362.59794" style="fill: #31a354"/>
    </g>
    <g clip-path="url(#p2a2901b83b)">
     <use xlink:href="#C2_0_0d215a2daa" x="179.933005" y="355.543401" style="fill: #31a354"/>
    </g>
    <g clip-path="url(#p2a2901b83b)">
     <use xlink:href="#C2_0_0d215a2daa" x="180.248814" y="355.105073" style="fill: #31a354"/>
    </g>
    <g clip-path="url(#p2a2901b83b)">
     <use xlink:href="#C2_0_0d215a2daa" x="204.665816" y="361.920919" style="fill: #31a354"/>
    </g>
    <g clip-path="url(#p2a2901b83b)">
     <use xlink:href="#C2_0_0d215a2daa" x="203.140267" y="361.517972" style="fill: #31a354"/>
    </g>
    <g clip-path="url(#p2a2901b83b)">
     <use xlink:href="#C2_0_0d215a2daa" x="200.973726" y="351.209142" style="fill: #31a354"/>
    </g>
    <g clip-path="url(#p2a2901b83b)">
     <use xlink:href="#C2_0_0d215a2daa" x="199.504552" y="352.245197" style="fill: #31a354"/>
    </g>
    <g clip-path="url(#p2a2901b83b)">
     <use xlink:href="#C2_0_0d215a2daa" x="184.173804" y="334.775917" style="fill: #31a354"/>
    </g>
    <g clip-path="url(#p2a2901b83b)">
     <use xlink:href="#C2_0_0d215a2daa" x="185.940856" y="337.605332" style="fill: #31a354"/>
    </g>
   </g>
   <g id="Path3DCollection_11">
    <defs>
     <path id="C3_0_85f9c5adf0" d="M -2.09165 4.1833 
L 0 2.09165 
L 2.09165 4.1833 
L 4.1833 2.09165 
L 2.09165 -0 
L 4.1833 -2.09165 
L 2.09165 -4.1833 
L 0 -2.09165 
L -2.09165 -4.1833 
L -4.1833 -2.09165 
L -2.09165 0 
L -4.1833 2.09165 
z
"/>
    </defs>
    <g clip-path="url(#p2a2901b83b)">
     <use xlink:href="#C3_0_85f9c5adf0" x="136.979816" y="363.787995" style="fill: #8c6d31"/>
    </g>
    <g clip-path="url(#p2a2901b83b)">
     <use xlink:href="#C3_0_85f9c5adf0" x="139.248629" y="363.228884" style="fill: #8c6d31"/>
    </g>
    <g clip-path="url(#p2a2901b83b)">
     <use xlink:href="#C3_0_85f9c5adf0" x="134.049293" y="360.128793" style="fill: #8c6d31"/>
    </g>
    <g clip-path="url(#p2a2901b83b)">
     <use xlink:href="#C3_0_85f9c5adf0" x="137.67513" y="361.154227" style="fill: #8c6d31"/>
    </g>
    <g clip-path="url(#p2a2901b83b)">
     <use xlink:href="#C3_0_85f9c5adf0" x="171.893617" y="343.449514" style="fill: #8c6d31"/>
    </g>
    <g clip-path="url(#p2a2901b83b)">
     <use xlink:href="#C3_0_85f9c5adf0" x="171.343519" y="342.719275" style="fill: #8c6d31"/>
    </g>
    <g clip-path="url(#p2a2901b83b)">
     <use xlink:href="#C3_0_85f9c5adf0" x="177.338853" y="340.770608" style="fill: #8c6d31"/>
    </g>
    <g clip-path="url(#p2a2901b83b)">
     <use xlink:href="#C3_0_85f9c5adf0" x="176.795927" y="339.163511" style="fill: #8c6d31"/>
    </g>
    <g clip-path="url(#p2a2901b83b)">
     <use xlink:href="#C3_0_85f9c5adf0" x="180.926604" y="218.888763" style="fill: #8c6d31"/>
    </g>
    <g clip-path="url(#p2a2901b83b)">
     <use xlink:href="#C3_0_85f9c5adf0" x="179.40866" y="215.161456" style="fill: #8c6d31"/>
    </g>
    <g clip-path="url(#p2a2901b83b)">
     <use xlink:href="#C3_0_85f9c5adf0" x="168.5961" y="168.298017" style="fill: #8c6d31"/>
    </g>
    <g clip-path="url(#p2a2901b83b)">
     <use xlink:href="#C3_0_85f9c5adf0" x="166.832251" y="163.65397" style="fill: #8c6d31"/>
    </g>
   </g>
   <g id="Path3DCollection_12">
    <defs>
     <path id="C4_0_12f8bf99bf" d="M 0 4.1833 
C 1.109424 4.1833 2.173559 3.742521 2.95804 2.95804 
C 3.742521 2.173559 4.1833 1.109424 4.1833 -0 
C 4.1833 -1.109424 3.742521 -2.173559 2.95804 -2.95804 
C 2.173559 -3.742521 1.109424 -4.1833 0 -4.1833 
C -1.109424 -4.1833 -2.173559 -3.742521 -2.95804 -2.95804 
C -3.742521 -2.173559 -4.1833 -1.109424 -4.1833 0 
C -4.1833 1.109424 -3.742521 2.173559 -2.95804 2.95804 
C -2.173559 3.742521 -1.109424 4.1833 0 4.1833 
z
"/>
    </defs>
    <g clip-path="url(#p2a2901b83b)">
     <use xlink:href="#C4_0_12f8bf99bf" x="196.522194" y="376.136361" style="fill: #3182bd"/>
    </g>
    <g clip-path="url(#p2a2901b83b)">
     <use xlink:href="#C4_0_12f8bf99bf" x="197.097293" y="377.089361" style="fill: #3182bd"/>
    </g>
    <g clip-path="url(#p2a2901b83b)">
     <use xlink:href="#C4_0_12f8bf99bf" x="202.124942" y="358.080298" style="fill: #3182bd"/>
    </g>
    <g clip-path="url(#p2a2901b83b)">
     <use xlink:href="#C4_0_12f8bf99bf" x="201.351082" y="358.784672" style="fill: #3182bd"/>
    </g>
    <g clip-path="url(#p2a2901b83b)">
     <use xlink:href="#C4_0_12f8bf99bf" x="220.407668" y="379.349898" style="fill: #3182bd"/>
    </g>
    <g clip-path="url(#p2a2901b83b)">
     <use xlink:href="#C4_0_12f8bf99bf" x="222.147153" y="379.808359" style="fill: #3182bd"/>
    </g>
    <g clip-path="url(#p2a2901b83b)">
     <use xlink:href="#C4_0_12f8bf99bf" x="229.702679" y="391.876409" style="fill: #3182bd"/>
    </g>
    <g clip-path="url(#p2a2901b83b)">
     <use xlink:href="#C4_0_12f8bf99bf" x="232.306048" y="391.40869" style="fill: #3182bd"/>
    </g>
    <g clip-path="url(#p2a2901b83b)">
     <use xlink:href="#C4_0_12f8bf99bf" x="256.344321" y="412.062246" style="fill: #3182bd"/>
    </g>
    <g clip-path="url(#p2a2901b83b)">
     <use xlink:href="#C4_0_12f8bf99bf" x="256.420781" y="414.971544" style="fill: #3182bd"/>
    </g>
    <g clip-path="url(#p2a2901b83b)">
     <use xlink:href="#C4_0_12f8bf99bf" x="243.732702" y="405.896658" style="fill: #3182bd"/>
    </g>
    <g clip-path="url(#p2a2901b83b)">
     <use xlink:href="#C4_0_12f8bf99bf" x="244.745329" y="409.557552" style="fill: #3182bd"/>
    </g>
    <g clip-path="url(#p2a2901b83b)">
     <use xlink:href="#C4_0_12f8bf99bf" x="247.024774" y="415.221994" style="fill: #3182bd"/>
    </g>
    <g clip-path="url(#p2a2901b83b)">
     <use xlink:href="#C4_0_12f8bf99bf" x="247.106021" y="415.152366" style="fill: #3182bd"/>
    </g>
    <g clip-path="url(#p2a2901b83b)">
     <use xlink:href="#C4_0_12f8bf99bf" x="256.03705" y="420.474546" style="fill: #3182bd"/>
    </g>
    <g clip-path="url(#p2a2901b83b)">
     <use xlink:href="#C4_0_12f8bf99bf" x="256.71775" y="421.210401" style="fill: #3182bd"/>
    </g>
    <g clip-path="url(#p2a2901b83b)">
     <use xlink:href="#C4_0_12f8bf99bf" x="260.270663" y="426.983766" style="fill: #3182bd"/>
    </g>
    <g clip-path="url(#p2a2901b83b)">
     <use xlink:href="#C4_0_12f8bf99bf" x="258.960002" y="426.176244" style="fill: #3182bd"/>
    </g>
    <g clip-path="url(#p2a2901b83b)">
     <use xlink:href="#C4_0_12f8bf99bf" x="237.528366" y="428.56516" style="fill: #3182bd"/>
    </g>
    <g clip-path="url(#p2a2901b83b)">
     <use xlink:href="#C4_0_12f8bf99bf" x="237.762158" y="429.871008" style="fill: #3182bd"/>
    </g>
    <g clip-path="url(#p2a2901b83b)">
     <use xlink:href="#C4_0_12f8bf99bf" x="245.984627" y="413.251282" style="fill: #3182bd"/>
    </g>
    <g clip-path="url(#p2a2901b83b)">
     <use xlink:href="#C4_0_12f8bf99bf" x="246.77193" y="413.420952" style="fill: #3182bd"/>
    </g>
    <g clip-path="url(#p2a2901b83b)">
     <use xlink:href="#C4_0_12f8bf99bf" x="265.058796" y="445.452155" style="fill: #3182bd"/>
    </g>
    <g clip-path="url(#p2a2901b83b)">
     <use xlink:href="#C4_0_12f8bf99bf" x="264.190875" y="440.701207" style="fill: #3182bd"/>
    </g>
   </g>
  </g>
 </g>
 <defs>
  <clipPath id="p2a2901b83b">
   <rect x="7.2" y="7.2" width="554.4" height="554.4"/>
  </clipPath>
 </defs>
</svg>
